<svg xmlns="http://www.w3.org/2000/svg" xmlns:xlink="http://www.w3.org/1999/xlink"
  viewBox="0 0 300 300">
  <defs>
    <linearGradient id="linear-gradient" x1="-72.8" x2="-36.7" y1="168.8" y2="168.8"
      gradientTransform="rotate(2 1811 5567)" gradientUnits="userSpaceOnUse">
      <stop offset="0" stop-color="#c91a12" />
      <stop offset=".3" stop-color="#cc1b13" />
      <stop offset=".6" stop-color="#d71d15" />
      <stop offset=".9" stop-color="#e82118" />
      <stop offset="1" stop-color="#f0231a" />
    </linearGradient>
    <linearGradient id="linear-gradient-2" x1="-134.4" x2="-45.6" y1="129.8" y2="129.8"
      gradientTransform="translate(245)" gradientUnits="userSpaceOnUse">
      <stop offset="0" stop-color="#f0231a" />
      <stop offset=".4" stop-color="#fa241b" />
      <stop offset="1" stop-color="#fd251c" />
    </linearGradient>
    <linearGradient id="linear-gradient-3" x1="-28.6" x2="5.2" y1="184.1" y2="184.1"
      gradientTransform="rotate(2 1811 5567)" gradientUnits="userSpaceOnUse">
      <stop offset="0" stop-color="#f0231a" />
      <stop offset=".1" stop-color="#e82118" />
      <stop offset=".4" stop-color="#d71d15" />
      <stop offset=".7" stop-color="#cc1b13" />
      <stop offset="1" stop-color="#c91a12" />
    </linearGradient>
    <linearGradient id="linear-gradient-4" x1="-73.8" x2="-36.7" y1="165.1" y2="165.1"
      gradientTransform="rotate(2 1811 5567)" gradientUnits="userSpaceOnUse">
      <stop offset="0" stop-color="#fd251c" />
      <stop offset=".6" stop-color="#fa241b" />
      <stop offset="1" stop-color="#f0231a" />
    </linearGradient>
    <linearGradient xlink:href="#linear-gradient-2" id="linear-gradient-5" x1="-161.8" x2="-155.7"
      y1="53.5" y2="90.9" gradientTransform="rotate(-2 1739 -7315)" />
    <linearGradient xlink:href="#linear-gradient-2" id="linear-gradient-6" x1="-28.4" x2="8.2"
      y1="177.1" y2="177.1" gradientTransform="rotate(2 1811 5567)" />
    <linearGradient id="linear-gradient-7" x1="-28.4" x2="8.2" y1="177.1" y2="177.1"
      gradientTransform="rotate(2 1811 5567)" gradientUnits="userSpaceOnUse">
      <stop offset="0" />
      <stop offset=".1" stop-color="#030202" />
      <stop offset=".2" stop-color="#0d0909" />
      <stop offset=".3" stop-color="#1e1414" />
      <stop offset=".3" stop-color="#352423" />
      <stop offset=".4" stop-color="#533937" />
      <stop offset=".5" stop-color="#78524f" />
      <stop offset=".5" stop-color="#9d6b68" />
      <stop offset="1" />
    </linearGradient>
    <linearGradient xlink:href="#linear-gradient-2" id="linear-gradient-8" x1="-36.4" x2="-74.6"
      y1="185.6" y2="200.8" gradientTransform="rotate(2 1811 5567)" />
    <linearGradient id="linear-gradient-9" x1="-40" x2="-27.1" y1="182.2" y2="182.2"
      gradientTransform="rotate(2 1811 5567)" gradientUnits="userSpaceOnUse">
      <stop offset="0" stop-color="#f0231a" />
      <stop offset=".2" stop-color="#f9241b" />
      <stop offset=".5" stop-color="#fd251c" />
      <stop offset=".7" stop-color="#fa241b" />
      <stop offset=".9" stop-color="#f0231a" />
    </linearGradient>
  </defs>

  <path d="M85 153v95l65 28v-99l-65-24z" fill="#bce36b" />
  <path fill="#a2cc3b" d="m150 177 66-23v94l-66 28v-99z" />
  <path fill="#485900"
    d="M216 154v34c-1-5-4-10-11-13-12-5-52 12-55 13-14-11-55-26-65-29v-6l65 24Z"
    opacity=".1" />
  <path fill="#b0d654" d="m82 153 68 24v-31l-68-22v29z" />
  <path fill="#8daf22" d="m150 146 69-21v29l-69 23Z" />
  <path d="m104 131-1 125 16 7-3-128-12-4zM180 137l1 126 15-7-3-123-13 4z" fill="#f9241b" />
  <path d="m82 124 68-17 69 18-69 21-68-22z" fill="#bce36b" />
  <path d="m116 135 73-18-14-3-71 17 12 4z" fill="#ff532f" />
  <path d="m180 137-63-22 12-3 64 21-13 4z" fill="#ff532f" />
  <path d="M148 129s-6 31 9 37c4 1 10 3 16-2 0 0-19-11-20-34 0 0-5-8-5-1Z" fill="#00000050" />
  <path d="M112 146c2 1 23 2 36-18l-4-3s-18 11-34 5c0 0-7 10 2 16Z" fill="#00000050" />
  <path fill="#bdeaf0" d="m150 121 14 4 1-1-14-4Z" style="mix-blend-mode:multiply" />
  <path d="M143 125c-13-3-20-7-25-9l17-5 12 10c-3 5-4 4-4 4Z" fill="#d10000" />
  <path fill="url(#linear-gradient)"
    d="M111 104s5 12 32 19c0 0 1 1 4-4 0 0-22-17-27-24 0-1-10 1-9 9Z" />
  <path d="M192 117c1 4-2 11-5 14l-23-6c12-2 28-8 28-8Z" fill="#00000050" />
  <path fill="url(#linear-gradient-2)"
    d="M186 133c-9 7-33-5-33-5 0-4 3-3 3-3a33 33 0 0 0 8 0l23 6a10 10 0 0 1-1 2Z" />
  <path d="M186 133c-9 7-33-5-33-5 0-4 3-3 3-3a33 33 0 0 0 8 0l23 6a10 10 0 0 1-1 2Z"
    fill="#d10000" />
  <path fill="url(#linear-gradient-3)"
    d="M155 128s23 9 31 2c0 0 5-7 1-11 0 0-19 6-31 5 0 0-2-1-1 4Z" />
  <path fill="url(#linear-gradient-4)"
    d="M144 122s-10-22-21-25c-8-2-12 3-12 7 0 0-4-9 4-14s31 5 32 29Z" />
  <path fill="url(#linear-gradient-5)"
    d="M148 129s-5 28 10 35c0 0 9 3 15 0 0 0-18-13-20-36 0 0-6-6-5 1Z" />
  <path fill="url(#linear-gradient-6)"
    d="M155 126s14-12 24-9 8 10 7 13c0 0 7-7 5-14s-17-17-36 5Z" />
  <path d="M155 121v5l2-2v-5l-2 2Z" fill="#d10000" />
  <path fill="url(#linear-gradient-7)"
    d="M155 126s14-12 24-9 8 10 7 13c0 0 7-7 5-14s-17-17-36 5Z" opacity=".2"
    style="mix-blend-mode:screen" />
  <path d="M154 136a43 43 0 0 1-1-8s-6-6-5 1a59 59 0 0 0 0 7 7 7 0 0 1 6 0Z" fill="#d10000" />
  <path fill="url(#linear-gradient-8)"
    d="M112 144s21 3 36-17l-4-4s-18 13-34 7c0 0-5 8 2 14Z" />
  <path d="M156 122s6-8 8-7-5 5-8 7Z" fill="#d10000" />
  <path
    d="M155 123s5-4 5-3l-5 3ZM146 118s-1-10-3-10 2 7 3 10ZM146 120s-2-6-3-6l3 6ZM148 127l-4-4a57 57 0 0 1-8 5c6 1 5 6 4 7a47 47 0 0 0 8-8Z"
    fill="#d10000" />
  <path d="m144 122 3-3-1-3a4 4 0 0 0-3 3l1 3Z" fill="#d10000" />
  <path fill="url(#linear-gradient-9)"
    d="M143 123c0 2 3 6 6 6s5 0 6-1 4-10-4-11c-6 0-7 2-8 6Z" />

</svg>