<svg xmlns="http://www.w3.org/2000/svg" viewBox="0 0 100 100">
  <ellipse cx="49.6" cy="71.1" fill="#edf2f1" rx="25.3" ry="26.9" transform="rotate(-87 49.6 71)" />
  <ellipse cx="47.7" cy="69.2" fill="#fff" rx="23.5" ry="24.9"
    transform="rotate(-87.7 47.5 69)" />
  <ellipse cx="52.9" cy="37.5" fill="#edf2f1" rx="20.6" ry="21.4" transform="rotate(-87 53 37.5)" />
  <path
    d="M71.3 36.8c-.5 10.5-9.7 18.7-20.7 18.2s-19.5-9.4-19-20 9.7-18.7 20.7-18.2 19.5 9.4 19 20Z"
    fill="#fff" />
  <path d="M46 31a3 3 0 1 1-2.6-3.4A3 3 0 0 1 46 31Z" fill="#1b191a" />
  <path
    d="M42.1 29.8a.7.7 0 0 1-.7.6.7.7 0 0 1-.6-.8.7.7 0 0 1 1.3.2ZM42.2 31a.4.4 0 0 1-.7 0 .4.4 0 0 1 .7 0Z"
    fill="#fff" />
  <path d="M60.6 33.6a3 3 0 1 1-2.6-3.2 3 3 0 0 1 2.6 3.2Z" fill="#1b191a" />
  <path
    d="M56.7 32.5a.7.7 0 0 1-.8.6.7.7 0 0 1-.5-.8.7.7 0 1 1 1.3.2ZM56.8 33.7a.4.4 0 1 1-.3-.4.4.4 0 0 1 .3.4Z"
    fill="#fff" />
  <circle cx="39.5" cy="40.8" r=".7" fill="#1b191a" />
  <path
    d="M41.3 43a.7.7 0 1 1-.6-.8.7.7 0 0 1 .6.8ZM42.4 44.6a.7.7 0 1 1-.7-.6.7.7 0 0 1 .7.6ZM43.9 46a.7.7 0 1 1-.9-.5.7.7 0 0 1 .9.4ZM45.6 46.9a.7.7 0 1 1-1-.2.7.7 0 0 1 1 .2ZM47.5 47.4a.7.7 0 1 1-1 0 .7.7 0 0 1 1 0ZM49.5 47.5a.7.7 0 0 1 .2 1 .7.7 0 0 1-1 .2.7.7 0 0 1-.1-1 .7.7 0 0 1 .9-.2ZM51.4 47.1a.7.7 0 1 1-.8.5.7.7 0 0 1 .8-.5ZM53.2 46.3a.7.7 0 1 1-.7.7.7.7 0 0 1 .7-.7ZM54.8 45.2a.7.7 0 1 1-.6.7.7.7 0 0 1 .6-.7ZM56.1 43.7a.7.7 0 1 1-.4.8.7.7 0 0 1 .4-.8Z"
    fill="#1b191a" />
  <path
    d="m49.3 35-11.6 2.4a.6.6 0 0 0 0 1.2l10.6 1.7a2.3 2.3 0 0 0 2.6-1.6c.5-1.6.8-3.7-1.6-3.8Z"
    fill="#ee534f" />
  <circle cx="46.9" cy="61.2" r="2" fill="#ee534f" />
  <path
    d="M48.1 68.9a2 2 0 1 1-1.8-2.3 2 2 0 0 1 1.8 2.3ZM47.2 76.4a2 2 0 1 1-1.8-2.3 2 2 0 0 1 1.8 2.3Z"
    fill="#ee534f" />
  <rect width="40.5" height="5.6" x="34.2" y="17.3" fill="#1b191a" rx="1.5"
    transform="rotate(7 54.4 20)" />
  <path d="m44.8 2 23 2.6a1.7 1.7 0 0 1 1.6 2L67.8 20l-26.5-3L43 3.5A1.7 1.7 0 0 1 44.8 2Z"
    fill="#1b191a" />
  <path d="m42 13.5 26.2 3L68 19l-26.4-3z" fill="#ee534f" />
</svg>