<svg xmlns="http://www.w3.org/2000/svg" viewBox="0 0 300 300">
  <path fill="#fff"
    d="M150 244a95 95 0 1 1 95-95 95 95 0 0 1-95 95Zm0-179a84 84 0 1 0 83 84 84 84 0 0 0-83-84Z" />
  <path
    d="M66 142a84 84 0 0 1 2-12 37 37 0 0 0-5-3 21 21 0 0 0-5-2 95 95 0 0 0-3 15 63 63 0 0 1 9 1l2 1ZM76 110a47 47 0 0 0-10-7 97 97 0 0 0-5 11 37 37 0 0 1 11 4 83 83 0 0 1 4-8ZM87 93l-8-8a97 97 0 0 0-6 8 50 50 0 0 1 10 6l4-6ZM97 84a85 85 0 0 1 8-6 75 75 0 0 0-7-9 97 97 0 0 0-10 8 59 59 0 0 1 7 5l2 2ZM148 65l1-11a95 95 0 0 0-15 1 77 77 0 0 1 5 11 84 84 0 0 1 9-1ZM166 67l4-11a95 95 0 0 0-11-2l1 12 6 1ZM214 79a95 95 0 0 0-13-10l-4 11a85 85 0 0 1 10 8l7-9ZM231 100a95 95 0 0 0-9-13l-6 11a82 82 0 0 1 6 8l9-6ZM241 126l1-1a94 94 0 0 0-5-14l-10 6a84 84 0 0 1 4 12l10-3ZM233 154a72 72 0 0 0 11 1l1-6a97 97 0 0 0-1-11l-3 1-8 2a85 85 0 0 1 0 13ZM239 181a93 93 0 0 0 4-14 65 65 0 0 1-11-2 82 82 0 0 1-3 11l10 5ZM222 210a96 96 0 0 0 12-18l-9-6a84 84 0 0 1-11 16l8 8ZM197 231a96 96 0 0 0 16-11 98 98 0 0 1-7-10 84 84 0 0 1-13 10l4 11ZM173 241a94 94 0 0 0 11-4l-3-11a84 84 0 0 1-8 3v12ZM68 167a82 82 0 0 1-2-12 81 81 0 0 0-11-4 95 95 0 0 0 2 20 76 76 0 0 1 11-4ZM61 182a94 94 0 0 0 7 16 79 79 0 0 1 9-8 84 84 0 0 1-5-11 71 71 0 0 0-11 3ZM83 198a66 66 0 0 0-8 9 96 96 0 0 0 12 13 120 120 0 0 1 5-11 84 84 0 0 1-9-11ZM101 216l-4 12a95 95 0 0 0 15 8l2-3 2-8a84 84 0 0 1-15-9ZM127 229l-3 11a95 95 0 0 0 15 3l2-7 1-4a83 83 0 0 1-15-3ZM153 232l-1 8v4l7-1 1-11h-7ZM190 63l-9-4-2 11 6 3 5-10ZM113 67l4 5a84 84 0 0 1 9-3 85 85 0 0 0-4-11 94 94 0 0 0-13 5l4 4Z"
    fill="#ff0e0e" />
  <path fill="#300a0a"
    d="M150 235a86 86 0 1 0-87-86 87 87 0 0 0 87 86Zm0-170a84 84 0 1 1-84 84 84 84 0 0 1 84-84Zm0 179a95 95 0 1 0-95-95 95 95 0 0 0 95 95Zm0-188a92 92 0 1 1-92 93 92 92 0 0 1 92-93Z"
    opacity=".3" style="mix-blend-mode:multiply" />
</svg>