<svg xmlns="http://www.w3.org/2000/svg" viewBox="0 0 100 100">
  
      <path fill="#600a0a" d="m45.3 21 17.6 36.3L97 66.2 79.4 29.9 45.3 21z" />
      <path fill="#7a1010" d="M3 49.2 45.3 21l17.6 36.3-42.3 28.2L3 49.2z" />
      <path fill="#c33" d="M83.3 19.6 36.9 40.4 4.7 25.8 51.1 5l32.2 14.6z" />
      <path d="m37.1 58.2 17.7 36.3L97 66.2 79.4 29.9 37.1 58.2z" fill="#ad3a3a" />
      <path d="m3 49.2 17.6 36.3 34.2 9-17.7-36.3-34.1-9z" fill="#e04f4f" />
      <path d="m36.9 40.4 2.5 8.8 46.4-20.7-2.5-8.9-46.4 20.8z" fill="#ad3a3a" />
      <path d="m4.7 25.8 2.6 8.8 32.1 14.6-2.5-8.8L4.7 25.8z" fill="#e04f4f" />
      <path d="m31.8 88.5 7.3 1.9-17.6-36.3-7.3-1.9 17.6 36.3z" fill="#ffd95f" />
      <path
        d="m73.5 82 5.4-3.6-17.6-36.3-5.4 3.6L73.5 82zM59.4 40.3l7.4-3.3-2.7-8.8-7.5 3.3 2.8 8.8z"
        fill="#efb745" />
      <path d="m19.9 40.4 6.9 3.1-2.6-8.9-6.8-3.1 2.5 8.9z" fill="#ffd95f" />
      <path d="m24.5 17 32.1 14.5 7.5-3.3-32.2-14.6-7.4 3.4z" fill="#e8a328" />
      <path d="m24.2 34.6 45.6-21.1-6.8-3.1-45.6 21.1 6.8 3.1z" fill="#e8a328" />
      <path
        d="M32.3 14.1zM40.5 10.8a33 33 0 0 0-7 2.7l.9-.3c9.7-2.9 6.6 10 6.6 10l6.1-2.4s3.1-12.9-6.6-10Z"
        fill="#ffd95f" />
      <path
        d="M54.5 15.2 46.9 18c2-.7 4.2-.2 6 3.3 1 2.4 1 3.8 0 4.4l5.5-2.3c3-1.5 3-1.5 1.4-4.7s-3.5-4-5.3-3.5Z"
        fill="#ffd95f" />
      <path d="M49.8 18c-4.1-1.7-8.8 5.2-8.8 5.2 6.6 2.9 14.7 5.2 12.1-1.2-1.6-.4-8.2-.7-3.3-4Z"
        fill="#efb745" />
      <path
        d="M38.2 13a7 7 0 0 0-3.8.3c-7.6 2.2-.2 7 6.6 10a20.3 20.3 0 0 0 .5-4.3c-3.4-2.1-5.5-4.4-3.3-6Z"
        fill="#efb745" />

</svg>