<svg xmlns="http://www.w3.org/2000/svg" viewBox="0 0 300 300">
  <defs>
    <clipPath id="clip-path">
      <circle cx="142.1" cy="159.8" r="43.5" transform="rotate(-8 145 160)" />
    </clipPath>
  </defs>
  <path d="m169 114 10 7-8 10-10-7z" fill="#ffb568" />
  <circle cx="142.1" cy="159.8" r="43.5" fill="#e23b36" transform="rotate(-8 145 160)" />
  <path
    d="m171 121 1-2s6-17 13-19a5 5 0 0 1 5 1 4 4 0 0 1 2 4c-1 7-19 15-19 15Zm18-19a4 4 0 0 0-4-1c-5 2-10 13-11 17 5-3 16-9 16-13a3 3 0 0 0-1-3Z"
    fill="#ffb568" />
  <path d="M133 126c0 3 4 5 8 4s7-3 6-6-4-4-8-3-7 3-6 5Z" fill="#fff" />
  <g clip-path="url(#clip-path)">
    <path d="M113 115s7 25 36 35 46 0 46 0l-10 41s-26 9-55-4c-27-13-34-22-42-45s25-27 25-27Z"
      fill="#ffb568" />
  </g>
  <path d="M132 181a1 1 0 0 1 0-1l11-24a1 1 0 1 1 2 0l-12 25a1 1 0 0 1-1 0Z" fill="#fff" />
  <path d="M125 163a1 1 0 0 1 1-1l25 11a1 1 0 0 1-1 2l-24-12a1 1 0 0 1-1 0Z" fill="#fff" />
  <path d="M125 174a1 1 0 0 1 0-1 1 1 0 0 1 0-1l25-9a1 1 0 0 1 1 1l-25 10a1 1 0 0 1-1 0Z"
    fill="#fff" />
  <path
    d="m142 181-9-25a1 1 0 0 1 0-1 1 1 0 0 1 1 0l10 25a1 1 0 0 1-1 2 1 1 0 0 1-1-1ZM165 185a1 1 0 0 1 0-1l2-22a1 1 0 0 1 1-1 1 1 0 0 1 1 1l-2 22a1 1 0 0 1-1 1 1 1 0 0 1-1 0Z"
    fill="#fff" />
  <path d="M155 173a1 1 0 0 1 1-2l21 2a1 1 0 0 1 1 1 1 1 0 0 1-1 1l-21-2a1 1 0 0 1-1 0Z"
    fill="#fff" />
  <path d="M158 181a1 1 0 0 1 0-2l16-14a1 1 0 0 1 2 2l-17 14a1 1 0 0 1-1 0Z" fill="#fff" />
  <path
    d="m173 182-14-17a1 1 0 1 1 1-1l14 17a1 1 0 0 1-1 1ZM108 160a1 1 0 0 1 0-1l12-18a1 1 0 0 1 2 0 1 1 0 0 1 0 1l-12 18a1 1 0 0 1-2 0Z"
    fill="#fff" />
  <path d="M106 145a1 1 0 0 1 1-1l17 12a1 1 0 0 1 1 1 1 1 0 0 1-2 1l-17-13Z" fill="#fff" />
  <path d="M104 153a1 1 0 0 1 0-1l22-4a1 1 0 0 1 1 1 1 1 0 0 1-1 1l-21 4a1 1 0 0 1-1-1Z"
    fill="#fff" />
  <path
    d="M116 162a1 1 0 0 1 0-1l-4-21a1 1 0 0 1 1-1 1 1 0 0 1 1 1l4 21a1 1 0 0 1-1 1 1 1 0 0 1-1 0ZM133 150a2 2 0 1 1 0-3 2 2 0 0 1 0 3ZM121 170a2 2 0 1 1 0-3 2 2 0 0 1 0 3ZM153 185a2 2 0 1 1 0-3 2 2 0 0 1 0 3ZM157 161a2 2 0 1 1 0-3 2 2 0 0 1 0 3Z"
    fill="#fff" />
</svg>