<svg xmlns="http://www.w3.org/2000/svg" viewBox="0 0 300 300">
  <path fill="none" d="M0 0h300v300H0z" />
  <path
    d="M148 134a58 58 0 0 0-7-25c-7-13-15-15-19-11s-15 18-19 28-2 12 4 15 33 4 33 4l8-3s15-8 34-8 18 3 17 9-12 33-27 42-18-10-20-19l-4-32Z"
    fill="#e23b36" />
  <path
    d="M146 139s-12-31-18-31 16 33 16 33-26-19-29-14 29 15 29 15ZM153 143s25-2 27 4-27-2-27-2 16 18 13 21-15-22-15-22Z"
    fill="#942320" />
  <path
    d="m144 146-12 23-9 16-11-8a49 49 0 0 1 13-19 75 75 0 0 1 19-13ZM147 147s-7 17-10 32-1 25-1 25l13-1a100 100 0 0 0 1-25l-1-31Z"
    fill="#e23b36" />
  <path d="M155 144c-1 4-5 6-9 5s-6-5-4-9 5-7 9-6 6 5 4 10Z" fill="#e23b36" />
</svg>