<svg xmlns="http://www.w3.org/2000/svg" viewBox="0 0 300 300">
  <path
    d="M130 226a11 11 0 0 1-8-13l5-18-36-10a6 6 0 0 1-5-4c0-3 1-6 3-8l23-21-6-1a6 6 0 0 1-4-5l3-6 21-17-3-1a6 6 0 0 1-4-4 6 6 0 0 1 3-6l45-36a7 7 0 0 1 10 3l20 54a6 6 0 0 1-1 7 6 6 0 0 1-5 1h-3l9 25c1 3 1 5-1 7a6 6 0 0 1-6 2l-6-2 9 30c1 3 0 6-1 7a6 6 0 0 1-7 2l-37-11-5 18a11 11 0 0 1-13 7Z"
    fill="#ad5a1d" />
  <path fill="#cc7c41"
    d="M127 224a11 11 0 0 1-7-13l5-18-37-10a6 6 0 0 1-4-5c-1-2 0-5 3-7l23-21-6-1a6 6 0 0 1-4-5c-1-2 0-5 2-6l22-17-3-1a6 6 0 0 1-4-4 6 6 0 0 1 2-6l46-36a7 7 0 0 1 10 3l20 54a6 6 0 0 1-1 7 6 6 0 0 1-6 1l-3-1 10 26c1 2 0 5-1 7a6 6 0 0 1-6 1l-6-1 9 30c0 3 0 5-2 7a6 6 0 0 1-6 2l-38-11-5 18a11 11 0 0 1-13 7Z" />
  <path
    d="M86 179c-1-3 0-5 3-7l23-21-2-1-23 21c-3 2-4 5-3 7a6 6 0 0 0 4 5h2a6 6 0 0 1-4-4ZM122 212l5-18-2-1-5 18a11 11 0 0 0 7 13 8 8 0 0 0 1 0 11 11 0 0 1-6-12ZM102 145c-1-3 0-5 3-7l21-16-2-1-22 17c-2 1-3 4-2 6a6 6 0 0 0 4 5h2a6 6 0 0 1-4-4ZM119 116a6 6 0 0 1 2-6l46-35a7 7 0 0 1 5-2 6 6 0 0 0-1 0 7 7 0 0 0-6 1l-46 36a6 6 0 0 0-2 6 6 6 0 0 0 4 4l2 1a6 6 0 0 1-4-5Z"
    fill="#e5a06c" />
  <path
    d="M130 220a6 6 0 0 1-1-1 6 6 0 0 1-3-6l6-20a3 3 0 0 0-2-4l-39-11a1 1 0 0 1-1 0v-1l1-2 26-23a3 3 0 0 0-1-5l-9-3h-1v-1a3 3 0 0 1 1-1l25-19a3 3 0 0 0-1-6l-8-2 1-1 45-35a1 1 0 0 1 3 0l20 54v2l-8-2a3 3 0 0 0-4 4l11 29a3 3 0 0 1 0 1v1h-1l-9-3a3 3 0 0 0-4 4l10 33v3h-1l-40-11a3 3 0 0 0-4 2l-5 20a5 5 0 0 1-7 4Zm-38-43 38 11a5 5 0 0 1 3 5l-5 20a4 4 0 0 0 2 5 4 4 0 0 0 5-3l6-19a5 5 0 0 1 6-4l39 11a3 3 0 0 0-1 0l-9-34a5 5 0 0 1 5-5l9 2-11-29a5 5 0 0 1 6-6l5 2-20-53-44 35 5 1a5 5 0 0 1 2 8l-24 19 8 2a5 5 0 0 1 2 8l-26 24a5 5 0 0 0-1 0Z"
    fill="#ad5a1d" />
  <path
    d="M129 219a5 5 0 0 1-1 0 6 6 0 0 1-3-7l5-19a3 3 0 0 0-2-4l-38-11a1 1 0 0 1-1-1l1-2 26-24a3 3 0 0 0-1-5l-10-2-1-1 1-1a4 4 0 0 1 1 0l24-20a3 3 0 0 0-1-5l-8-2 1-1 46-36a1 1 0 0 1 2 1l20 54 1 2-8-3a3 3 0 0 0-4 4l11 30a3 3 0 0 1 0 1v1l-1-1-10-2a3 3 0 0 0-3 3l10 34v3h-1a3 3 0 0 1-1 0l-39-12a3 3 0 0 0-4 3l-6 19a5 5 0 0 1-6 4Zm-38-42 38 10a5 5 0 0 1 3 6l-6 20a4 4 0 0 0 2 4 4 4 0 0 0 1 1 4 4 0 0 0 5-3l5-20a5 5 0 0 1 6-3l39 11a4 4 0 0 0 0-1l-10-33a5 5 0 0 1 6-6l8 2-10-28a5 5 0 0 1 5-6l5 1-19-53-44 35 5 2a5 5 0 0 1 1 8l-24 18 8 3a5 5 0 0 1 2 8l-26 23a4 4 0 0 0 0 1Z"
    fill="#eec488" />
  <path
    d="M128 221a8 8 0 0 1-1 0 8 8 0 0 1-4-9l6-20a1 1 0 0 0-1-1l-39-11a3 3 0 0 1-2-2c0-2 0-3 2-5l26-23a1 1 0 0 0-1-2l-9-3a3 3 0 0 1-2-2 3 3 0 0 1 1-3l25-19a1 1 0 0 0 0-1 1 1 0 0 0 0-1l-7-2a2 2 0 0 1-2-2 3 3 0 0 1 1-3l46-35a3 3 0 0 1 5 1l20 54a3 3 0 0 1 0 3 2 2 0 0 1-3 1l-7-2a1 1 0 0 0-1 1l11 30a3 3 0 0 1-1 3 3 3 0 0 1-3 1l-9-3a1 1 0 0 0-1 1 1 1 0 0 0 0 1l9 33v5a3 3 0 0 1-3 1l-40-12a1 1 0 0 0-1 1l-6 20a7 7 0 0 1-9 5Zm-23-78a1 1 0 0 0 1 0l9 3a4 4 0 0 1 1 6l-26 23-1 2h1l39 11a4 4 0 0 1 2 5l-6 19a5 5 0 0 0 3 6 5 5 0 0 0 4 0 5 5 0 0 0 3-3l6-20a4 4 0 0 1 4-2l40 11v-2l-10-33a4 4 0 0 1 5-5l9 3a1 1 0 0 0 1 0 2 2 0 0 0-1-1l-10-30a4 4 0 0 1 4-4l7 2a2 2 0 0 0 0-1l-20-54a1 1 0 0 0-2 0l-45 35a2 2 0 0 0-1 1l7 2a4 4 0 0 1 1 6l-24 19-1 1Z"
    fill="#feefcd" />
  <path
    d="M162 105a4 4 0 1 0-2-5 4 4 0 0 0 2 5ZM164 128a5 5 0 1 0 3 7 5 5 0 0 0-3-7ZM165 153a4 4 0 1 0 3 5 4 4 0 0 0-3-5Z"
    fill="#ad5a1d" />
  <circle cx="163.9" cy="99.5" r="3.9" fill="#8e1209" />
  <path d="M160 98a3 3 0 1 1 3 4 3 3 0 0 1-3-4Z" fill="#ef3030" />
  <path d="M158 130a5 5 0 1 1 3 7 5 5 0 0 1-3-7Z" fill="#8e1209" />
  <path d="M158 130a5 5 0 1 1 3 6 5 5 0 0 1-3-6Z" fill="#ef3030" />
  <path d="M144 158a5 5 0 1 0 4 7 5 5 0 0 0-4-7Z" fill="#ad5a1d" />
  <path d="M138 160a5 5 0 1 1 4 7 5 5 0 0 1-4-7Z" fill="#eec488" />
  <path d="M138 160a5 5 0 1 1 3 6 5 5 0 0 1-3-6Z" fill="#feefcd" />
  <circle cx="164.5" cy="155.7" r="3.9" fill="#eec488" />
  <path d="M161 154a3 3 0 1 1 2 5 3 3 0 0 1-2-5Z" fill="#feefcd" />
  <path d="M147 178a4 4 0 1 0 2 5 4 4 0 0 0-2-5Z" fill="#ad5a1d" />
  <circle cx="145.9" cy="180.8" r="3.9" fill="#eec488" />
  <path d="M142 180a3 3 0 1 1 3 4 3 3 0 0 1-3-4Z" fill="#feefcd" />
  <path d="M121 165a4 4 0 1 0 3 4 4 4 0 0 0-3-4Z" fill="#ad5a1d" />
  <circle cx="120.3" cy="167" r="3.9" fill="#8e1209" />
  <path d="M117 166a3 3 0 1 1 2 4 3 3 0 0 1-2-4Z" fill="#ef3030" />
  <path d="M136 136a4 4 0 1 0 3 5 4 4 0 0 0-3-5Z" fill="#ad5a1d" />
  <circle cx="135.2" cy="138.9" r="3.9" fill="#8e1209" />
  <path d="M132 138a3 3 0 1 1 2 4 3 3 0 0 1-2-4Z" fill="#ef3030" />
  <path d="M167 179a4 4 0 1 0 3 5 4 4 0 0 0-3-5Z" fill="#ad5a1d" />
  <path d="M163 180a4 4 0 1 1 2 5 4 4 0 0 1-2-5Z" fill="#8e1209" />
  <path d="M163 180a3 3 0 1 1 2 4 3 3 0 0 1-2-4Z" fill="#ef3030" />
  <circle cx="150.2" cy="117.3" r="3.9" fill="#ad5a1d" />
  <circle cx="150.5" cy="116" r="3.9" fill="#eec488" />
  <path d="M147 115a3 3 0 1 1 2 4 3 3 0 0 1-2-4Z" fill="#feefcd" />
</svg>