<svg xmlns="http://www.w3.org/2000/svg" viewBox="0 0 1047 213">
  <path fill="#fff"
    d="M8 113c12-36 42-61 76-72a12 12 0 0 1 6 0c15 2 30 12 44 9l1-1c25-3 52-20 77-19a13 13 0 0 1 7 2c79 50 76-10 148 21a13 13 0 0 0 14-2c9-8 18-28 29-28 23-2 43-11 64-18a13 13 0 0 1 9 0c30 11 49 13 80 2a13 13 0 0 0 3-1c26-16 28 5 47 9a13 13 0 0 0 8-1c20-9 29-4 46 8a13 13 0 0 0 6 2c33 3 61 27 94 20a12 12 0 0 0 3-1c59-29 63 9 119-19a13 13 0 0 1 11 0c28 11 30 13 60-1a13 13 0 0 1 8-1c10 2 11 12 24 13a12 12 0 0 1 5 2c12 7 22 21 28 33 1 1-2 11 5 15a13 13 0 0 1 5 6c15 32-3 55-41 51a14 14 0 0 0-3 0c-34 5-67-13-102-8a13 13 0 0 1-4 0c-19-3-36 19-54 9a12 12 0 0 0-2-1c-12-3-24 13-35 5a16 16 0 0 0-2-1c-32-17-70 1-103 9l-1 1c-30 11-54-9-81-17a13 13 0 0 0-3 0c-50-5-67-21-121 1-26 12-48-9-74-6a12 12 0 0 1-2 0c-45 0-90 25-134 19a13 13 0 0 1-4-2c-46-25-96 9-142-2a14 14 0 0 1-3 0C88 134 20 169 7 120a13 13 0 0 1 1-7Z" />
  <path fill="#bce1fc"
    d="M6 116c3 10 8 18 17 24a38 38 0 0 0 22 6l17-1 22-1c13-1 27-2 41 3 10 5 21 5 31 3l8-1a46 46 0 0 0 15-5 29 29 0 0 1 14-3h41a93 93 0 0 1 26 4 40 40 0 0 1 11 5c7 5 14 6 21 2l15-3a75 75 0 0 1 12-1c9 0 19-3 28-5 6-2 13-3 19-6 4-2 9-2 13-2l18-2a173 173 0 0 1 23 0 69 69 0 0 1 29 7 24 24 0 0 0 14 3c16-2 30-7 45-12l14-3 29-2a23 23 0 0 1 16 6 14 14 0 0 0 12 5l17-1a184 184 0 0 1 44 16c12 5 24 6 36 5 7 0 13-3 20-5a383 383 0 0 1 42-12c13-2 27-3 41-2a13 13 0 0 1 6 2 67 67 0 0 1 6 4c7 5 14 4 21 1l8-4c4-1 8-2 12 1 5 4 11 5 18 1 7-5 16-9 25-10a34 34 0 0 1 5-1h42c11 1 22 2 33 7a40 40 0 0 0 16 3c8 0 16 1 24-3a15 15 0 0 1 10 0 71 71 0 0 0 7 2c7 1 12-3 17-7 6-5 9-12 11-20a17 17 0 0 1 2-3c3 3 4 8 4 12 1 5 1 10-1 15l-1 3c-2 7-4 13-3 21v28a6 6 0 0 1 0 4c-3 5-13 6-17 2a35 35 0 0 1-7-8l-10-15c-4-4-9-6-14-7-9-2-17 0-25-3l-12-4a43 43 0 0 0-22-6h-17c-10-1-19 1-28 3a179 179 0 0 1-23 3 15 15 0 0 0-8 4l-9 10c-5 7-13 7-18 1-1-1-1-3-3-2a4 4 0 0 0-3 3l-1 7-2 15c-1 6-5 11-10 13-7 4-15-2-16-10l2-14c0-9-1-18-8-24-6-5-14-7-23-5-11 2-23 6-34 10a38 38 0 0 0-9 4c-12 9-26 13-40 18a27 27 0 0 1-9 1h-18c-12 0-22-4-30-12a60 60 0 0 0-17-11 9 9 0 0 0-8 0 83 83 0 0 1-15 5c-6 1-8 5-8 10v9c0 6-4 11-10 11s-10-4-10-11l-1-20a42 42 0 0 0-2-9c-2-7-9-12-18-12a62 62 0 0 0-21 3c-6 2-11 5-17 6a85 85 0 0 1-27 4c-5 0-5 0-6 5l-4 8a9 9 0 0 1-10 3c-4-2-7-4-7-8-2-10-9-15-18-16l-22-1c-15-1-29 3-43 8l-23 8a27 27 0 0 1-7 0l-25 2c-6 0-11 2-15 6a13 13 0 0 0-6 9 33 33 0 0 1 0 4c-1 4-3 7-7 7-4 1-8 0-10-4l-4-14v-4c-2-6-5-8-11-9l-27-4c-14-1-28-1-41 4a40 40 0 0 0-11 6l-7 5c-9 6-19 5-29 1l-12-8a19 19 0 0 0-11-3l-30 3-14 1a164 164 0 0 1-30 1 53 53 0 0 1-13-2c-2-1-4 0-5 2a18 18 0 0 0-1 6l-3 24a18 18 0 0 1-2 4c-4 7-8 8-15 4-4-2-4-6-4-9a126 126 0 0 0 2-22l1-8-2-16a85 85 0 0 1 0-25 30 30 0 0 1 5-15Z" />
</svg>