<svg xmlns="http://www.w3.org/2000/svg" xmlns:xlink="http://www.w3.org/1999/xlink"
  viewBox="0 0 100 100">
  <defs>
    <symbol id="a" data-name="flake" viewBox="0 0 100 100">
      <path fill="none" d="M0 0h100v100H0z" />
      <path fill="#fff"
        d="M78.8 62.6 74 59.9l2.4-.6a2 2 0 0 0-1.1-4L69 57.3l-1.6-1 7.5-2.1a2 2 0 0 0-1.1-3.9l-11.4 3.2-2.1-1.2a10.8 10.8 0 0 0 .4-1.6c1-.4 3.5-.5 3.4-2.2.2-1.6-2.4-1.7-3.4-2.1a12.5 12.5 0 0 0-.4-1.6l2-1.2 11.5 3.3a2 2 0 0 0 1-4l-7.5-2 1.7-1 6.2 1.8a2 2 0 0 0 1.1-3.9l-2.3-.6 4.8-2.7a2 2 0 0 0-2-3.5L72 33.5l.7-2.3a2 2 0 0 0-4-1.1L67 36.3l-1.6 1 2-7.6a2 2 0 0 0-3.8-1L60.4 40l-2 1.2a11.3 11.3 0 0 0-1.3-1.3c.2-1.3 2-4.3.3-5.1-1.6-1.1-3.4 2-4.4 2.7a11 11 0 0 0-1.6-.4v-2.4l8.4-8.3c1.9-1.9-1-4.8-2.8-2.9L51.4 29v-1.8l4.6-4.6c1.9-1.9-1-4.8-2.9-2.9l-1.7 1.8V16a2 2 0 1 0-4 0v5.4l-1.7-1.7c-1.9-1.9-4.8 1-2.9 2.9l4.6 4.5v2L42 23.4c-1.8-1.9-4.8 1-2.9 2.9l8.4 8.3v2.4a12.4 12.4 0 0 0-1.7.4c-1-.7-2.8-3.8-4.3-2.7-1.7.8 0 3.9.2 5.1a11.6 11.6 0 0 0-1.2 1.3l-2-1.2-3.2-11.4a2 2 0 0 0-4 1.1l2.2 7.6-1.6-1-1.8-6.2a2 2 0 0 0-3.9 1l.7 2.5-4.8-2.7a2 2 0 1 0-2 3.5l4.8 2.7-2.4.6a2 2 0 0 0 1 4l6.3-1.8 1.7.9-7.5 2.1a2 2 0 0 0 1.1 3.9l11.4-3.2 2 1.1a11.2 11.2 0 0 0-.3 1.6c-1.1.4-3.7.5-3.5 2.1-.2 1.7 2.4 1.8 3.4 2.2a12.4 12.4 0 0 0 .5 1.7l-2 1.1L25 50.2a2 2 0 0 0-1.1 4l7.5 2-1.6 1-6.3-1.8a2 2 0 0 0-1 3.9l2.3.6-4.7 2.7a2 2 0 1 0 2 3.5l4.7-2.6-.7 2.3A2 2 0 0 0 30 67l1.8-6.2 1.6-1-2.1 7.6a2 2 0 0 0 3.9 1L38.4 57l2.1-1.2a11 11 0 0 0 1.1 1.2c-.2 1.2-2 4.3-.2 5.1 1.5 1 3.3-2 4.3-2.7a12.1 12.1 0 0 0 1.7.4v2.5L39 70.6c-1.9 1.9 1 4.8 2.9 2.9l5.5-5.5v1.9l-4.6 4.5c-1.9 1.8 1 4.7 2.9 2.9l1.7-1.8V81a2 2 0 1 0 4 0v-5.5l1.7 1.8c1.9 1.9 4.8-1 2.9-2.9l-4.6-4.6V68l5.6 5.5c1.8 1.9 4.7-1 2.9-2.9l-8.4-8.3v-2.5a12.5 12.5 0 0 0 1.6-.4c1 .7 2.8 3.7 4.3 2.7 1.7-.8 0-4-.2-5.1a10.2 10.2 0 0 0 1.1-1.2l2.1 1.2 3.3 11.4a2 2 0 0 0 3.8-1l-2.1-7.7 1.6 1 1.8 6.2a2 2 0 0 0 3.9-1l-.7-2.5 4.8 2.7c2.3 1.3 4.3-2.3 2-3.5Z" />
    </symbol>
  </defs>
  <g data-name="Слой 2">
    <use xlink:href="#a" width="100" height="100" data-name="Слой 15" />
  </g>
</svg>