<svg xmlns="http://www.w3.org/2000/svg" xmlns:xlink="http://www.w3.org/1999/xlink"
  viewBox="0 0 100 100">
  <defs>
    <style>
      .cls-1{fill:#97622c;}.cls-2{fill:none;}.cls-3{fill:#b81c34;}.cls-4{fill:#e8c5aa;}.cls-5{fill:#b47636;}.cls-6{clip-path:url(#clip-path);}.cls-7{fill:#835524;}.cls-8{clip-path:url(#clip-path-2);}.cls-9{fill:#fff;}.cls-10{fill:#ce9878;}</style>
    <clipPath id="clip-path">
      <path fill="#97622c"
        d="M72.28,83c-1.59,3.62-4.35,6-5.91,5.33s-1.53-4.17,0-7.79,4.93-6,6.48-5.28S73.86,79.35,72.28,83Z" />
    </clipPath>
    <clipPath id="clip-path-2">
      <path fill="#97622c"
        d="M27.87,83c1.58,3.62,4.35,6,5.91,5.33s1.53-4.17-.06-7.79-4.92-6-6.48-5.28S26.28,79.35,27.87,83Z" />
    </clipPath>
    <symbol id="elf" data-name="elf" viewBox="0 0 100 100">
      <g id="elf-3" data-name="elf">
        <path fill="#b81c34"
          d="M62.2,77l-2-7L50.07,71H39.93l-2,6-2.18.8,1.79,7.94s7-1.9,12.45-1.43v0s0,0,.07,0l.93,0v0c4.57-.47,11.6,1.43,11.6,1.43l1.78-7.94Z" />
        <path fill="#e8c5aa"
          d="M63,49.6c2,2.88-.6,10.71-13.5,10.71s-14.69-4.7-14.69-7.93C34.81,45.43,58.83,43.64,63,49.6Z" />
        <path class="cls-5"
          d="M65.53,77.81,63.7,76.55A15.48,15.48,0,0,0,61,85.91l2.35.21s1.89,2.27,3.49,2.3c2.61,0,8.36-9.66,6.92-13.66C72.92,72.38,68.24,72.78,65.53,77.81Z" />
        <path fill="#97622c"
          d="M72.28,83c-1.59,3.62-4.35,6-5.91,5.33s-1.53-4.17,0-7.79,4.93-6,6.48-5.28S73.86,79.35,72.28,83Z" />
        <g class="cls-6">
          <path fill="#835524"
            d="M72.32,84.42h-.08l-7.15-2.18a.3.3,0,0,1-.19-.37.29.29,0,0,1,.36-.2l7.15,2.19a.28.28,0,0,1,.19.36A.29.29,0,0,1,72.32,84.42Z" />
        </g>
        <path class="cls-5"
          d="M34.62,77.81l1.82-1.26a15.48,15.48,0,0,1,2.69,9.36l-2.35.21s-1.89,2.27-3.49,2.3c-2.61,0-8.36-9.66-6.92-13.66C27.23,72.38,31.91,72.78,34.62,77.81Z" />
        <path fill="#97622c"
          d="M27.87,83c1.58,3.62,4.35,6,5.91,5.33s1.53-4.17-.06-7.79-4.92-6-6.48-5.28S26.28,79.35,27.87,83Z" />
        <g fill="#b47636">
          <path fill="#835524"
            d="M27.82,84.42a.3.3,0,0,1-.28-.21.28.28,0,0,1,.2-.36l7.14-2.19a.3.3,0,0,1,.17.57l-7.14,2.18Z" />
        </g>
        <path fill="#b81c34"
          d="M61.8,70.83a27.11,27.11,0,0,1-2,14.09l-5.76-.79s1.59-6.55,1.39-8.34Z" />
        <path fill="#e8c5aa"
          d="M54.06,84.13a3.29,3.29,0,0,1,5.76.79C61,87.9,51.68,87.9,54.06,84.13Z" />
        <path fill="#b81c34"
          d="M36.8,70.83a27.23,27.23,0,0,0,2,14.09l5.76-.79S43,77.58,43.15,75.79Z" />
        <path fill="#e8c5aa"
          d="M44.54,84.13a3.29,3.29,0,0,0-5.76.79C37.59,87.9,46.92,87.9,44.54,84.13Z" />
        <path fill="#fff"
          d="M54.06,52.57s4,2.78,9.33-1a16.59,16.59,0,0,1,3.38,6.35c1,3.77.89,9.92-3.08,13.1s-7,4.76-7.24,7.74-.65,6.84-5.76,8.34a15.34,15.34,0,0,1-9.13-.4s3.69-3.19,2.58-6c-1.19-3-1.28-3.38-6.55-6.35C29.85,70,31,57.93,34.81,52.38c0,0,5.56,3.77,10.72.59Z" />
        <path fill="#b81c34"
          d="M49.7,60.41c-4.79,0-5.89-3.11-5.93-3.25a.38.38,0,0,1,.25-.49.38.38,0,0,1,.49.25c0,.1,1,2.7,5.19,2.7a6.66,6.66,0,0,0,5.81-3,.39.39,0,0,1,.68.38A7.43,7.43,0,0,1,49.7,60.41Z" />
        <path fill="#b81c34"
          d="M34.81,52.38S37,48,50.1,48c10.32,0,13.29,3.57,13.29,3.57l2.38,3.57s5.16-4.56,4.37-8.73-4.17-7.54-6-12.5a26.08,26.08,0,0,1-1.59-9.13s4.56,7.74,10.32,7.54c0,0-3.18-5.56-5.16-9.33s-3.38-9.72-8.93-10.32-13.5,9.13-15.68,12.51-8.29,11-10.92,14.48c-5.35,7.15-1.19,13.1.6,16.28Z" />
        <ellipse fill="#e8c5aa" cx="49.5" cy="53" rx="4.5" ry="4" />
        <path fill="#ce9878"
          d="M50,57.4c-2.68,0-4.86-1.87-4.86-4.17s2.18-4.16,4.86-4.16,4.85,1.87,4.85,4.16S52.67,57.4,50,57.4Zm0-7.55c-2.25,0-4.08,1.52-4.08,3.38s1.83,3.38,4.08,3.38,4.07-1.51,4.07-3.38S52.24,49.85,50,49.85Z" />
      </g>
    </symbol>
  </defs>
  <use width="100" height="100" xlink:href="#elf" />
</svg>