<svg xmlns="http://www.w3.org/2000/svg" xmlns:xlink="http://www.w3.org/1999/xlink"
  viewBox="0 0 100 100">

  <style>
    .cls-8{fill:#c56641}.cls-10{fill:#62331b}.cls-11{fill:#c97a2f}</style>

  <path fill="#281200"
    d="m75.7 52.8.2-2a12.3 12.3 0 0 0-.1-5.2 2.7 2.7 0 0 0-1.2-2.2 3.4 3.4 0 0 0-2.2-.1c.7-2.8 1-5.7 0-8.2a4 4 0 0 0-.4-1 2.1 2.1 0 0 0-1.8-1 5.2 5.2 0 0 0-2.2 0 14 14 0 0 0 .4-3.4 4.6 4.6 0 0 0-1.4-3.4 6.3 6.3 0 0 0-1.2-1.4c-1-1-2.7-2-4-1.6.1-1.3 0-2.6-1-3.3a.8.8 0 0 0-.8-.5.6.6 0 0 0-.5.4 5.2 5.2 0 0 0-2.9-1 6.8 6.8 0 0 0-2.7.7l.2-1.8c0-.6.2-1.6-.2-2-.2-.6-2-.2-2.2-.2-2.4.2-5-.1-7.3 0a.6.6 0 0 0-.7.6.7.7 0 0 1 0-.1l1 4a13.2 13.2 0 0 0-4.9.4c-.8.2-2 .2-2.4 1.1-.3.4-.6.8-.3 1.3l1.4 2.3c-1.7-.2-3.7 1.5-5 2.4-.2.1-2 1.4-1.3 1.9.4 1.2 2.3 2.9 3 3.6a7 7 0 0 0 1 1.2 1.3 1.3 0 0 1-1 0 6.8 6.8 0 0 0-3.3.2c-.8.2-3 1-3.4 2.2-.8 1 1 3.1 1.6 4l-1.6-1c-1-.5-1.7 1-1.8 2a.4.4 0 0 0 0 .5 8.4 8.4 0 0 0 .9 1.8 7.2 7.2 0 0 0-1.5 1.2 17 17 0 0 0 .7 2.1l.7 1.7.6 1a29.7 29.7 0 0 1 2.1 4c-.6-.8-1.1-2-1.7-2.7a5 5 0 0 0-2-1.8c-1-.3-1.1 1.3-1 2.3-.5 1.2.3 2 1 3.2l.2.2c-3.1.6-1 4.4 0 6a32.1 32.1 0 0 0 2.7 3.5 4 4 0 0 0-2 .3 2.3 2.3 0 0 0-.8.8s-.1 0-.1 0a.8.8 0 0 0 0 .2.4.4 0 0 0 0 .2 5.2 5.2 0 0 0 1.3 2.2l1.3 1.5a.4.4 0 0 0-.1 0 .4.4 0 0 0-.1.4c.3 1.7 2 2.9 3.2 3.8l1 .8a1.5 1.5 0 0 0-1 .6.4.4 0 0 0 0 .4 20.7 20.7 0 0 0 3.6 4 43.4 43.4 0 0 0 4 3.3v.1a1.8 1.8 0 0 0 0 .3 3.6 3.6 0 0 0-1 0s0 .2 0 .2a21.3 21.3 0 0 0 3.7 1 20.6 20.6 0 0 0 3 1.8 9.3 9.3 0 0 0 2.5.2l2.5.5a16.4 16.4 0 0 0 2.7.2c2.7.2 5.7-1 8-2.3a10.2 10.2 0 0 0 2.5-2.1l1.7-.8a20.9 20.9 0 0 0 4.6-3c.8-.7 2.6-2.9 2.2-4a10.9 10.9 0 0 0 3-2.7 14 14 0 0 0 1.6-3.5 3.6 3.6 0 0 0 .1-3.4 1.5 1.5 0 0 0-.2-.3 22.5 22.5 0 0 0 .7-2.4 17 17 0 0 0 .7-6 4.6 4.6 0 0 0-2.3-4.2Z" />
  <path
    d="m61.1 83.1-2.1.3a36.7 36.7 0 0 1-4 .5c-2.7 0-5.5-.5-8.2-.4-.2 0 0-.3 0-.3-.3 0-.5 0-.6.6a3.5 3.5 0 0 0 .2 1 2.7 2.7 0 0 0 1.5 2c.7.2 1.5.2 2.2.5h.2a16.4 16.4 0 0 0 2.7.1c2.7.3 5.7-1 8-2.2a10.2 10.2 0 0 0 2.5-2.1h.2v-.2a5.2 5.2 0 0 0-2.6.2ZM45.7 21.9c1 1.6 3.2 4.4 5.2 3.3a4.6 4.6 0 0 0 1.8-2.6l1-2.5.3-1 .1-1.3c0-.6.2-1.6-.2-2-.2-.6-2-.2-2.2-.2-2.4.2-4.9-.1-7.3 0a.6.6 0 0 0-.7.6.7.7 0 0 1 0-.1l.6 2.6a17.6 17.6 0 0 0 1.4 3.2Z"
    fill="#281303" />
  <path
    d="M54 19.5a3 3 0 0 0-1.7 1.1c-.6 1-.1 2.9 0 4 .5 2.1 1.2 4.3 3.3 5a4.6 4.6 0 0 0 5.3-2 8.3 8.3 0 0 0 1.1-3.8v-.5h-.2a6.4 6.4 0 0 0 0-1.7l-.2-.6a2 2 0 0 0-.7-1 .8.8 0 0 0-.9-.5.6.6 0 0 0-.5.4 5.2 5.2 0 0 0-2.8-1 6.8 6.8 0 0 0-2 .3 5.7 5.7 0 0 1-.7.3Z"
    fill="#332119" />
  <path
    d="m37.4 23.4 1 1.8c1.3 2.4 3.2 4.7 5.7 4 2.3-.7 3.8-3.6 3.5-6.2-.2-2-1.6-2.4-3-3a.2.2 0 0 1 0 .1 13.2 13.2 0 0 0-4.8.4c-.9.2-2 .2-2.5 1.1a1.2 1.2 0 0 0-.4 1Z"
    class="cls-5" />
  <path
    d="M47.7 34a4 4 0 0 0 2.4.9l1-.1a4 4 0 0 1 .5-.1 5.1 5.1 0 0 0 3.5-3.1 16.6 16.6 0 0 0 .7-5.3c0-.8 0-1.8-1-1.6l-1.5.5a9.4 9.4 0 0 1-4.8.5c-1.4-.3-3-1-4.4-.3-.5 1.4.5 3.4 1 4.6a10 10 0 0 0 2.6 4Z"
    fill="#281303" />
  <path
    d="M35.2 34.3a9.7 9.7 0 0 0 2.3 4.2 5.8 5.8 0 0 0 8 .5 8 8 0 0 0 2.2-5 9.5 9.5 0 0 0 0-3.4c-.2-.4-2 0-2.2.1a18.7 18.7 0 0 1-9-.6 4.2 4.2 0 0 1-1.7 0A12 12 0 0 0 35 33a7 7 0 0 0 1.2 1.3 1.3 1.3 0 0 1-1 0Z"
    class="cls-5" />
  <path
    d="M66.5 29.9a17.8 17.8 0 0 0-3.2.6 28.8 28.8 0 0 1-4.3.8 4 4 0 0 1-3.1-.7 6.8 6.8 0 0 1-2.6-.6c-1 3.5.7 8 4 9a7.5 7.5 0 0 0 9-4 9 9 0 0 0 .7-2.8v-1.7c0-.6 0-.6-.5-.6Z"
    fill="#332119" />
  <path
    d="M49.8 35.2a10.7 10.7 0 0 1-3.8.1 11.6 11.6 0 0 1-3 .5c-.6 0-1 0-1 .7a4.3 4.3 0 0 0 .2 1 18 18 0 0 0 2 4 20.7 20.7 0 0 0 2 2.8c2.5 2.9 6.9 2.5 9.5.2a9 9 0 0 0 2.6-4.4 13.6 13.6 0 0 0 .6-2.7c0-.6 0-1.7-.5-2.2s-1.2-.2-1.8-.1a13.3 13.3 0 0 1-1.4 0 26 26 0 0 0-3.5-.1h-.2a4.8 4.8 0 0 1-1.7.2Z"
    fill="#281303" />
  <path
    d="M45.3 42.4 42 42a35.5 35.5 0 0 1-5.7-1.1l-3-.1c-.6 0-.3 2-.3 2.4a15.5 15.5 0 0 0 2 5.3 7 7 0 0 0 3.6 3.5 7.1 7.1 0 0 0 5-.4 7.5 7.5 0 0 0 4-3.6c.7-1.6 1.5-3.9 1-5.7-.2-.3-3 0-3.3 0Z"
    class="cls-5" />
  <path
    d="M70.4 39.3a2.1 2.1 0 0 0-1-.1 16.1 16.1 0 0 0-2.3.7l-2.3.6a16.5 16.5 0 0 1-3.2.5A5.3 5.3 0 0 1 60 41a2.7 2.7 0 0 0-1.4-.1.1.1 0 0 1-.1 0l-3.5.4c-.6 0-.9.3-1 1a6.8 6.8 0 0 0-.1 1.5c0 1.8.4 3.8 1.7 5 3.1 3.2 7.7 2.7 10.8 0a14 14 0 0 0 3.6-5.3 7.5 7.5 0 0 0 .8-3.1c0-.4 0-1-.4-1Z"
    fill="#332119" />
  <path
    d="M58.8 47.5a56.2 56.2 0 0 0-7 0 44.3 44.3 0 0 0-5.3 0c0 .2 0 .4-.2.4a26.5 26.5 0 0 0-3.6.6 15.8 15.8 0 0 0 1.8 6.7 8.2 8.2 0 0 0 4.3 3.6c3.3 1.2 7.6.6 10-2.2a9.7 9.7 0 0 0 2.2-5.1 7.4 7.4 0 0 0 0-3c-.3-1-1.5-1-2.2-1Z"
    fill="#281303" />
  <path
    d="M49 55.7a14.9 14.9 0 0 1-2.8-.3l-6-1.4a37.5 37.5 0 0 1-4.8-.8.1.1 0 0 1-.1 0L35 53h-.2v-.1c-.8-.5-1.8-.9-1.9.5a8.4 8.4 0 0 0 .3 3.4 11.4 11.4 0 0 0 3 5 7.8 7.8 0 0 0 9.4 1 7.4 7.4 0 0 0 3.5-4.5 10 10 0 0 0 .3-1.4c0-.5.2-1.2-.4-1.2Z"
    class="cls-5" />
  <path
    d="m68.8 52.2-3.4 1-3.9 1c-.8.2-1.7.2-2.6.5l-.2.1a2.5 2.5 0 0 1-.4 0l-.1.1H58a7.2 7.2 0 0 0-2.4 0c-1 .2-.6 2-.6 2.7.2 2.2.6 4.7 2.1 6.2 3 3 7.7 2.7 10.8.3a9.5 9.5 0 0 0 3.3-5.8 22.9 22.9 0 0 0 .4-3.5v-1.5c0-.4.1-1.2-.2-1.5-.6-.6-2 .2-2.6.4Z"
    fill="#332119" />
  <path
    d="M61.1 60.2a10.8 10.8 0 0 0-3.7.5c-1.6.4-3.2.3-4.8.7-1.1.2-2.5.7-3.6.3l-.2.1a8.5 8.5 0 0 0-2.7-.4 6.8 6.8 0 0 1-1.9 0A17 17 0 0 0 46 68a6.3 6.3 0 0 0 4.8 3.3c3.7.6 8.6-.6 10-5a23.3 23.3 0 0 0 .7-3.7c0-.7.5-2.2-.4-2.3Z"
    fill="#281303" />
  <path
    d="M48.4 67.8H47c-2-.3-3.8-.7-5.8-.8l-5.8-.5a.1.1 0 0 1-.1 0 4.7 4.7 0 0 1-1.6-.1c.2 3 1.3 6.1 3.5 8a7.2 7.2 0 0 0 8.1.5 6.5 6.5 0 0 0 2.8-3.3 7.5 7.5 0 0 0 .5-2.6c0-.3 0-1.1-.3-1.2Z"
    class="cls-5" />
  <path
    d="M72.8 64.2a4 4 0 0 0-1 .2 48.6 48.6 0 0 1-7.3 2c-1.6.2-3.9.7-5.3-.3a23 23 0 0 0-2.3.2l-1.9.5c-.6.1-1 0-1 .6a5.4 5.4 0 0 0 .5 3.1 8.6 8.6 0 0 0 4 4.2 10.5 10.5 0 0 0 10.4-1 10 10 0 0 0 3.6-4.7 10.6 10.6 0 0 0 .7-4c0-.2 0-.9-.4-.8Z"
    fill="#332119" />
  <path
    d="M61 73a2.1 2.1 0 0 0-1-.2 15.1 15.1 0 0 0-2-.1c-2 0-4-.4-6-.5a30.7 30.7 0 0 0-7.2.3.3.3 0 0 1-.2.2h-1.4c-.2 0-1-.1-1 .3a5.8 5.8 0 0 0 0 .9 8 8 0 0 0 .3 1.7 7.6 7.6 0 0 0 1.3 2.8 9.1 9.1 0 0 0 4.8 3c3.4 1 7.9.5 10.4-2.6a13.6 13.6 0 0 0 2-3.5 5.6 5.6 0 0 0 0-2.2Z"
    fill="#281303" />
  <path
    d="m47.9 86.9 1.5.3a2.5 2.5 0 0 0 .9-1.5 26.5 26.5 0 0 0-.1-5.3l-.1-1.3c0-.3-.1 0-.3 0a2.4 2.4 0 0 1-1.2.4 23.1 23.1 0 0 1-8.4-1c-2.7-.7-5.5-1.7-8.2-2.8a.3.3 0 0 0 0 .2 20.7 20.7 0 0 0 3.7 4 43.4 43.4 0 0 0 4 3.4 1.8 1.8 0 0 0 0 .3 3.6 3.6 0 0 0-1 .1 21.3 21.3 0 0 0 3.6 1.2 20.6 20.6 0 0 0 3.1 1.7 9.3 9.3 0 0 0 2.5.3Z"
    class="cls-5" />
  <path
    d="M72 75.4c-.5-1.4-3.1-.5-4 0a28.7 28.7 0 0 1-4.5 1.7 13.6 13.6 0 0 1-4.4.6c-.6 0-2.3-.3-2.6.5a5.5 5.5 0 0 0-.1 2.2 5 5 0 0 0 4.4 4.4h.8a10.6 10.6 0 0 0 2-1.6l1.7-.8a20.9 20.9 0 0 0 4.6-3c.7-.7 2.5-2.9 2.1-4Z"
    fill="#332119" />
  <path
    d="m44.2 17.4 2.4 1.2.7.3a10.1 10.1 0 0 0 1.4.3 5.3 5.3 0 0 0 5.3-3c0-.5-.3-1-1-1.3a12.7 12.7 0 0 0-6.3-.4 9.5 9.5 0 0 0-2 .4 3.5 3.5 0 0 0-1 .9 1.8 1.8 0 0 0 .5 1.6ZM38 24.6a6.8 6.8 0 0 0-1.6-.9 3.4 3.4 0 0 0-2.3 1l-.6.8-1.5 2.4a2.9 2.9 0 0 0 0 .8v.4a.7.7 0 0 1 0 .1c1 .9 4.3-1 5-1.6l.9-.6c.3-.2 1.9-1.1 1-1.8l-.9-.6ZM39.6 24a12.8 12.8 0 0 0 2.4.3 8.9 8.9 0 0 0 4-1.6c.7-.4 1.7-1.2.8-2.1a11.7 11.7 0 0 0-1-.8l-1.4-1-1.3-.8c-1.6-.7-2.7 0-4 1.2-.5.4-3 2.7-1.9 3.3a.3.3 0 0 1 .2.1l.6.4a2.6 2.6 0 0 1 .7.4ZM60.6 19.7a10.7 10.7 0 0 0-2.8-2 4.4 4.4 0 0 0-2.5 0L52.1 20a1.2 1.2 0 0 0 .1 1 14.5 14.5 0 0 0 6 2c1.4 0 4.6-1.4 2.4-3.3ZM47.5 27.9c1.3.5 2.6.9 4 .4 1.1-.4 4.4-1.8 4.4-3.4a1.1 1.1 0 0 0-.3-.8 60 60 0 0 1-2.6-1l-.5-.2a13.3 13.3 0 0 0-3.2-1l-.3.1-3.8 2.2-1 .6c-.8 1.6 2.3 2.8 3.3 3.1ZM36.8 32.8A6 6 0 0 0 41 34a11.6 11.6 0 0 0 4.8-1.7c.5-.2 2.1-1 1.9-2a1.7 1.7 0 0 0-.8-1 3.8 3.8 0 0 1-.3-.1 12.5 12.5 0 0 1-2.5-1.4l-2.4-1.4a102 102 0 0 1-6.5 3.5c-.7 1 .8 2.2 1.7 2.9ZM32 39.5a24 24 0 0 0 2.7-.8c1-.4 4.9-1.8 3.3-3.3l-3.8-2.5a5.5 5.5 0 0 0-5 1L28 36.6a3.5 3.5 0 0 0 4 2.8ZM29.3 40.6l-.4-.3-1-.8a1.2 1.2 0 0 0-.8 0l-.6 2.3c.1.3.5.4.8.4a.2.2 0 0 1 .2 0l2-.8a1.4 1.4 0 0 0-.2-.8ZM60.9 24.9l5.2 1.7.6.2a1.6 1.6 0 0 0 .7-.2L67 26a34.3 34.3 0 0 0-3.3-3.8 2.3 2.3 0 0 0-1.9.4L60.1 24a2 2 0 0 0 .8.9ZM52.6 39.9l.8-.4a23 23 0 0 0 3-1.4c1.1-.7 3.5-1.9 2.1-3.6l-1.3-.5a12.3 12.3 0 0 1-1.3-.4 8.8 8.8 0 0 1-1.6-.8l-4.4-2a121.9 121.9 0 0 0-8 4.9c0 .5.5 1 1 1.5l3.9 2.2a7.8 7.8 0 0 0 3.9.8 11.7 11.7 0 0 0 2-.3ZM33.1 41.7a6.8 6.8 0 0 0 2.8 2.6c2.2 1.1 4.5 2 6.9 1.3a17 17 0 0 0 4-1.5c1-.5 2.4-1.6 1-2.8a1.8 1.8 0 0 0 0-.1 79.7 79.7 0 0 1-6.7-3.8l-1-.6c-2.2 1.3-4.5 2.5-6.8 3.6a1 1 0 0 0-.2 1.3ZM29.9 42c-.9.4-1.7.8-2.5 1a2.5 2.5 0 0 0-1 3.4 10 10 0 0 0 3.3 3.7 5.8 5.8 0 0 0 6.1 0c.5-.3 2.7-1.3 2.2-2.2a7.6 7.6 0 0 0-.8-1 246 246 0 0 1-4.8-3.8L31 42a4.7 4.7 0 0 0-1.1 0ZM28.8 51.9a8 8 0 0 0-.6-1l-1.3-1.6a4.5 4.5 0 0 0-1.2-1 1.9 1.9 0 0 0-.4.5c-.2 1.2-.3 2.3-.3 3.5l.1.3a2.3 2.3 0 0 0 2.6.7c.6-.2 1.5-.5 1-1.4ZM65.4 32.1c.9-.6 2.6-2 1-3.2a13.1 13.1 0 0 0-2.5-1.3l-.8-.4a9.6 9.6 0 0 1-1.5-.6 6.5 6.5 0 0 0-4.7-.1l-3 2c-1.5 1.6-.2 2.9 1.5 3.7l1.2.5.3.2a14 14 0 0 0 2.5.6 8.4 8.4 0 0 0 6-1.4ZM76 46.6a1.6 1.6 0 0 0 0-.3c0-1.4-1-3.6-2.4-4a3.2 3.2 0 0 0-2.8.8l-4 3.4a1.3 1.3 0 0 0-.1.6.3.3 0 0 1 0 .1 1.5 1.5 0 0 0 .4.5l1.8.6 2.3.7c2.1.2 4.2-.5 4.8-2.4ZM70.9 50.7l-2.6-1-4-1.4c-3 2.2-6 4.3-9.2 6.3a2 2 0 0 0-.1.6c.7 1 3.4 2 4 2.2 2.2.7 4.3 1.2 6.5.4a11.9 11.9 0 0 0 5.6-4c1-1.5.7-2.5-.2-3.1ZM61.5 60a2.1 2.1 0 0 0-.4-.4Q56.8 58 52.6 56l-2 1-6 3.3a1.5 1.5 0 0 0-.1 2 22.8 22.8 0 0 0 2 1.4 9.7 9.7 0 0 0 5.1 1.6c3-.1 5.6-1.6 8.2-3.2.5-.3 2.2-1.2 1.7-2.1ZM48 66.8a14 14 0 0 0-2-1.5l-.5-.3-2.4-1.5a6.1 6.1 0 0 0-.7-.4 4.6 4.6 0 0 0-2-.5l-5.8 3-.7.3c-.3.6 0 1.3.7 2l3 2.4a7.5 7.5 0 0 0 4.8.6c1.5-.5 3-1 4.4-1.7l.5-.3c.6-.4 1.7-1.1.6-2.1ZM32 72.6c.8 0 5.6.1 5.6-1.1a71.5 71.5 0 0 1-5.9-4.8c-1.3.5-2.6 1-3.9 1.3-1 1.8 3 4.5 4.2 4.6ZM67 60.1l2.2.8a12.5 12.5 0 0 0 5.5.4A3.8 3.8 0 0 0 78 58v-1.6a21.3 21.3 0 0 0-.8-3.2 2.3 2.3 0 0 0-1-.8l-.4-.1a3.6 3.6 0 0 0-2 .3l-5.5 4.7-1.7 1.4c-.4.5-.5 1 .5 1.4ZM72 62.9c-1.1-.8-6.7-1.9-8-2.3a90.2 90.2 0 0 1-8.4 5l-1.3.8a1.3 1.3 0 0 0 .4 1.8 4.5 4.5 0 0 0 .7.3 26.8 26.8 0 0 0 4.7 1.8 10.5 10.5 0 0 0 6.8-.7c1.3-.6 8.6-4.5 5.1-6.7ZM59.8 71.8a62 62 0 0 1-6.5-2.6 6.7 6.7 0 0 0-2-.2 11 11 0 0 0-3.5 1c-.7.3-5.2 1.8-5.6 2.8a9.7 9.7 0 0 0 1.8 1.4 20.8 20.8 0 0 0 2.7 1.4 16.5 16.5 0 0 0 7.7 1.5 18.4 18.4 0 0 0 6-3.3 2.3 2.3 0 0 0 .6-.8 2.4 2.4 0 0 0-1.2-1.2ZM49.7 78l-3.4-1.4a55 55 0 0 1-5.5-3 44.2 44.2 0 0 0-6.7.2c-.9.3-2 .6-2.1 1.5a7.1 7.1 0 0 0 .5.8 16.8 16.8 0 0 0 8 4.7 11.8 11.8 0 0 0 6 .2 14 14 0 0 0 3-1.1c.9-.6.7-1.2.2-1.8ZM40.5 83.7h.1c.2-.3.1-.6-.3-1a8.2 8.2 0 0 0-.8-.7 46.5 46.5 0 0 1-4.8-2.8l-.4-.2a6.4 6.4 0 0 0-.7 0 1.1 1.1 0 0 0-.4.1 25.8 25.8 0 0 0 5.2 4.8 6.3 6.3 0 0 0 2-.3ZM71 73.4a5.7 5.7 0 0 0 4.5-1.5 27.1 27.1 0 0 0 1.7-5.1c0-2.1-1.7-1.4-2.8-.7a63.3 63.3 0 0 1-8.5 5.7c-.2.3-.2.7.5.8l1.5.3 2.8.5ZM63.8 82a52 52 0 0 1-8.2-1.9 7.7 7.7 0 0 0-3.1 0 18 18 0 0 0-3.3 1.2c-.3.2-3.4 1.9-3 2.2a.3.3 0 0 1 0 .2c1.4 1 3.2 1 4.7 1.3a20.6 20.6 0 0 0 6 .3 17.5 17.5 0 0 0 5-1.4 7.9 7.9 0 0 0 2.1-1.2 1.1 1.1 0 0 0-.3-.6ZM55.3 86.7a36 36 0 0 1-6.5-1 8.6 8.6 0 0 1-2.4-.8l-1.1-.4-.4-.1a.2.2 0 0 1-.2 0 3 3 0 0 0-2.7.1 3.5 3.5 0 0 0-1.2.8 18.7 18.7 0 0 0 2.3 1 22.7 22.7 0 0 0 11.1 1 2.3 2.3 0 0 0 1.1-.6ZM71.3 74.5a55.2 55.2 0 0 1-7.2-1.4l-4 2.4-1.2.6-1.6 1a3.3 3.3 0 0 0-1 .9 1 1 0 0 0 .6 1.3h.1a.3.3 0 0 1 .2.1 6.2 6.2 0 0 0 .8.3l1.8.5a14.5 14.5 0 0 0 4.6.5 9.6 9.6 0 0 0 6.3-3c.8-1 1.7-2.5.6-3.2ZM70.3 38.4c-2.6-.6-5.2-1.4-7.7-2.3a105 105 0 0 1-8.4 5.2c-.7 1.5 2.2 2.4 3.2 2.7h.2a16.4 16.4 0 0 0 4.6.3 14.2 14.2 0 0 0 6.7-2.7c1.4-1 2.3-2.2 1.3-3.2ZM43.1 49.3a11 11 0 0 0 1.7 1.3 18.2 18.2 0 0 0 3 1.4 11 11 0 0 0 7.2.3 16.2 16.2 0 0 0 5.1-2.7c1.8-1.6.4-2.7-1.2-3.4l-4.6-2h-.1a89 89 0 0 1-2.9-1.3l-.4.3-8.1 4.4a1.3 1.3 0 0 0 .3 1.7ZM47.1 57.6c.5-.2 3-1.4 2.4-2.3a3.2 3.2 0 0 0-.9-1L44 51.5l-1.4-.8a6.8 6.8 0 0 0-2.7-1 4.3 4.3 0 0 0-1.6.3L35.6 51l-2.3 1c-1.4 1.2 1.8 3.7 2.7 4.4a9.7 9.7 0 0 0 5 2.4 12 12 0 0 0 6.1-1.3ZM38.7 60.5l-.8-.9-2.4-2-3.2-2.8A3.8 3.8 0 0 0 30 54c-1.6.2-4 .7-5 2.2v1c.6 2.7 4.4 5.7 6 6.3a5.5 5.5 0 0 0 4.9 0c.6-.2 2.7-1.2 3-2.2a2.1 2.1 0 0 0-.2-.8ZM29.2 66.5c.6-.2 1.3-.4 1-1.1l-4-4.2a.9.9 0 0 0-.7-.2.5.5 0 0 0 0 .2 39.7 39.7 0 0 0 1.1 5.2c.7.8 1.7.5 2.6.1ZM70 37h.1a5.8 5.8 0 0 0 2.2 0 .8.8 0 0 0 .5-.4 1.5 1.5 0 0 0 0-.2 6.2 6.2 0 0 0-.3-1.2l-1-2a4.3 4.3 0 0 0-1.5-1.6 2.1 2.1 0 0 0-2 .1 40.2 40.2 0 0 1-3.2 2.7c-.2 1.3 2.5 2 3.2 2.3a11.7 11.7 0 0 0 1.7.4.3.3 0 0 1 .3 0Z"
    fill="#a04b32" />

  <g style="mix-blend-mode:screen">
    <path
      d="M48.6 16.5a12.6 12.6 0 0 0 5-1 2 2 0 0 0-.7-.6 12.7 12.7 0 0 0-6.3-.4 9.5 9.5 0 0 0-2 .4 3.7 3.7 0 0 0-1 .8c1.5 1 3.5.9 5 .8ZM39.1 25.4a.4.4 0 0 0 0-.2l-1-.6a6.8 6.8 0 0 0-1.7-.9 3.4 3.4 0 0 0-2.3 1l-.6.8-1.5 2.4a2.9 2.9 0 0 0 0 .8.4.4 0 0 0 0 .2c1.5-2.5 4.5-3.2 7.1-3.5ZM39.2 21a13.7 13.7 0 0 1 3-.7 9.6 9.6 0 0 1 3 .2l2 .5a1.2 1.2 0 0 0-.4-.4 11.7 11.7 0 0 0-1-.8l-1.4-1-1.3-.8c-1.6-.7-2.7 0-4 1.2-.4.3-2.2 2-2.2 2.9.8-.3 1.5-.9 2.3-1.1ZM54.1 20a16 16 0 0 1 2.6 0 13.6 13.6 0 0 1 2.9.4l1.8.6a1.7 1.7 0 0 0-.8-1.3 10.7 10.7 0 0 0-2.8-2 4.4 4.4 0 0 0-2.5 0L52.1 20a1 1 0 0 0 0 .3 20.6 20.6 0 0 1 2-.3ZM48.8 24a34.3 34.3 0 0 1 7 .6 1.2 1.2 0 0 0-.3-.5 60 60 0 0 1-2.6-1l-.4-.2a13.3 13.3 0 0 0-3.2-1l-.3.1-3.8 2.2-1 .6a1 1 0 0 0-.2.6 9.7 9.7 0 0 1 4.8-1.3ZM41.7 29.4a17.4 17.4 0 0 1 3.7.4 19.8 19.8 0 0 0 2.1.5 1.8 1.8 0 0 0-.7-1 3.8 3.8 0 0 1-.3-.1 12.5 12.5 0 0 1-2.5-1.4l-2.4-1.4a102 102 0 0 1-6.5 3.5 1 1 0 0 0-.2.6c2.3-.4 4.5-1.2 6.8-1.1ZM30.4 35.1a10 10 0 0 1 3-.2 15.8 15.8 0 0 1 5 1 1.1 1.1 0 0 0-.3-.5l-3.8-2.5a5.5 5.5 0 0 0-5.1 1 66 66 0 0 0-1 2.3 9 9 0 0 1 2.2-1ZM29.5 41.2a1.3 1.3 0 0 0-.2-.6l-.4-.3-1-.8a1.2 1.2 0 0 0-.8 0l-.3 1.2c1 .3 1.8.4 2.7.5ZM65.5 24l-.5-.5-1.3-1.4a2.3 2.3 0 0 0-2 .4L60.1 24a.7.7 0 0 0 .1.2 7.7 7.7 0 0 1 5.3-.1ZM58.7 34.8a1.6 1.6 0 0 0-.2-.2l-1.3-.6a12.3 12.3 0 0 1-1.3-.4 8.8 8.8 0 0 1-1.6-.8l-4.4-2a121.9 121.9 0 0 0-8 4.9.8.8 0 0 0 .2.5 26.6 26.6 0 0 1 16.6-1.4ZM48.3 41.8a1.6 1.6 0 0 0-.4-.5 1.8 1.8 0 0 0-.1-.1 79.7 79.7 0 0 1-6.6-3.8l-1-.6c-2.3 1.3-4.5 2.5-6.8 3.6a1.6 1.6 0 0 0-.3.6 19.3 19.3 0 0 1 15.2.8ZM28 44.3a13 13 0 0 1 3.4 1l6.6 2.6a8.6 8.6 0 0 0-.8-1 246 246 0 0 1-4.8-3.8L31 42a4.7 4.7 0 0 0-1.1 0c-.9.4-1.7.8-2.6 1a3.2 3.2 0 0 0-1 1.3 5.5 5.5 0 0 1 1.7 0ZM28.8 52a8 8 0 0 0-.6-1L27 49.3a4.5 4.5 0 0 0-1.2-1 1.9 1.9 0 0 0-.4.4l-.2 1.6c1.2-.3 2.6.7 3.7 1.6ZM59.3 28.4a32.6 32.6 0 0 1 4.9.6c1 .1 1.9.4 2.8.6a1.4 1.4 0 0 0-.5-.7 13.1 13.1 0 0 0-2.6-1.3l-.8-.4a9.6 9.6 0 0 1-1.5-.6 6.5 6.5 0 0 0-4.7-.1l-3 2a2.2 2.2 0 0 0-.7 1.2 11.3 11.3 0 0 1 6.1-1.3ZM71.5 44.7a8.2 8.2 0 0 1 2.5-.5h1.6a2.8 2.8 0 0 0-4.8-1.1l-4 3.4a1.3 1.3 0 0 0 0 .6 19.2 19.2 0 0 1 4.7-2.4ZM63 51.6a11.6 11.6 0 0 1 4.9-.6c1.2.2 2.5.5 3.7.5a2.2 2.2 0 0 0-.7-.8l-2.6-1-4-1.4c-3 2.2-6 4.3-9.2 6.3a1.6 1.6 0 0 0-.1.5c2.7-1 5.1-2.8 8-3.5ZM53.3 59.5a37.4 37.4 0 0 1 5.4 0l2.6.3-.2-.2Q56.8 58 52.6 56l-2 1-6 3.3a1.6 1.6 0 0 0-.4.9 28.3 28.3 0 0 1 9.1-1.8ZM36.3 65.5A13.8 13.8 0 0 1 41 65a30 30 0 0 1 7.5 2.5 1 1 0 0 0-.5-.8 14 14 0 0 0-2-1.5l-.4-.3-2.4-1.5a6.1 6.1 0 0 0-.7-.4 4.6 4.6 0 0 0-2-.5l-5.8 3-.7.3v.1a13.7 13.7 0 0 1 2.4-.5ZM28.5 68l2.9.5a28.1 28.1 0 0 1 5.2 2.2q-2.5-1.9-4.9-4A39.8 39.8 0 0 1 28 68a5.6 5.6 0 0 1 .6 0ZM72.8 56a19.9 19.9 0 0 1 4.8-1.2c0-.6-.2-1.1-.4-1.7a2.3 2.3 0 0 0-1-.7l-.4-.2a3.6 3.6 0 0 0-2 .3c-1.8 1.7-3.7 3.2-5.5 4.7l-1.7 1.4a1.4 1.4 0 0 0-.3.5c2.3-.8 4.3-2.1 6.5-3.1ZM64.2 64a26 26 0 0 1 5.6-.6l3 .2a2.2 2.2 0 0 0-.8-.7c-1.1-.8-6.7-1.9-8-2.3a90.2 90.2 0 0 1-8.4 5l-1.3.8a1.5 1.5 0 0 0-.3 1 42.2 42.2 0 0 1 10.2-3.3ZM52 71c2.8.2 5.6.8 8.4 1.2a4.6 4.6 0 0 0-.6-.4 62 62 0 0 1-6.6-2.6 6.7 6.7 0 0 0-2-.2 11 11 0 0 0-3.4 1c-.7.3-4.6 1.6-5.5 2.6A27.5 27.5 0 0 1 52 71ZM32.8 76.3a28.3 28.3 0 0 1 3.9-.5 25.9 25.9 0 0 1 5.2.6c1.8.3 3.5.8 5.2 1.2l2.4.4-3.2-1.4a55 55 0 0 1-5.5-3 44.2 44.2 0 0 0-6.7.2c-.9.2-2 .6-2.1 1.5a7.1 7.1 0 0 0 .5.8ZM40.1 82.5a7.7 7.7 0 0 0-.6-.5 46.5 46.5 0 0 1-4.8-2.9l-.4-.1a6.4 6.4 0 0 0-.7-.1 1.1 1.1 0 0 0-.4.1 28.8 28.8 0 0 0 2.1 2.3l4.8 1.2ZM76.7 68.5l.5-1.8c0-2-1.7-1.3-2.9-.6a63.3 63.3 0 0 1-8.4 5.7.7.7 0 0 0 0 .2c3.6-.8 7-3.5 10.8-3.5ZM56.1 81.4a40 40 0 0 1 5.4.6l2.4.4a1.4 1.4 0 0 0-.2-.3 52 52 0 0 1-8-2 7.7 7.7 0 0 0-3.2 0 18 18 0 0 0-3.3 1.2 16.5 16.5 0 0 0-3 2 29.3 29.3 0 0 1 10-1.9ZM42.8 85.4a12.6 12.6 0 0 1 2 0 40.4 40.4 0 0 1 5 .8 17.3 17.3 0 0 0 4.3.4h.3a35.6 35.6 0 0 1-5.6-1 8.6 8.6 0 0 1-2.4-.7l-1.1-.4-.4-.1a.2.2 0 0 1-.2 0 3 3 0 0 0-2.7.1 3.5 3.5 0 0 0-1.2.8l.5.3a10.7 10.7 0 0 0 1.5-.2ZM65 75.7l6.8-.5a1.1 1.1 0 0 0-.5-.7 55.2 55.2 0 0 1-7.1-1.4L60 75.6l-1.2.6-1.6 1a3.3 3.3 0 0 0-1 .9v.2a30.8 30.8 0 0 1 8.7-2.5ZM62.1 39a45.8 45.8 0 0 1 8.4-.2 1.5 1.5 0 0 0-.2-.4c-2.6-.6-5.2-1.4-7.7-2.3a105 105 0 0 1-8.4 5.2 1 1 0 0 0 0 .5 22 22 0 0 1 8-2.9ZM51.2 46c3 0 5.9.6 8.8.8a7.6 7.6 0 0 0-1-.6l-4.7-2h-.1a89 89 0 0 1-2.9-1.3l-.4.3-8.1 4.4a1.4 1.4 0 0 0-.2.4 24 24 0 0 1 8.6-2ZM37.8 52.3a16.3 16.3 0 0 1 5.4.7l5.1 1.2c-1.1-.8-3.8-2.3-4.4-2.7l-1.4-.8a6.8 6.8 0 0 0-2.7-1 4.3 4.3 0 0 0-1.6.3l-2.6 1.2-2.3 1a1 1 0 0 0-.3.8c1.6-.1 3.1-.6 4.8-.7ZM28.6 56a16 16 0 0 1 3.7 1.6l6.7 3.8a2.1 2.1 0 0 0-.3-1l-.9-.8-2.3-2-3.2-2.8A3.8 3.8 0 0 0 30 54a8.7 8.7 0 0 0-4.4 1.6 19.1 19.1 0 0 1 3 .4ZM27.6 63.8a21 21 0 0 1 2.7 1.8 1 1 0 0 0-.1-.2q-2.1-2-4-4.2a.9.9 0 0 0-.7-.2.5.5 0 0 0 0 .2l.3 1.7a4 4 0 0 1 1.8.9ZM69.2 33.4a10 10 0 0 1 2.4 0l-.1-.1a4.3 4.3 0 0 0-1.6-1.7 2.1 2.1 0 0 0-2 .1 40.2 40.2 0 0 1-3.2 2.7.8.8 0 0 0 .1.5 14 14 0 0 1 4.4-1.5Z"
      fill="#c56641" />
  </g>

  <g opacity=".3" style="mix-blend-mode:multiply">
    <path
      d="M53 14.9a9.3 9.3 0 0 0-3.4-.6 11.5 11.5 0 0 1 2.3 2.2.2.2 0 0 1 0 .1 10.8 10.8 0 0 1-2.5 2.6 5.2 5.2 0 0 0 4.6-3c0-.5-.3-1-1-1.3ZM39 25.2l-1-.6a6.8 6.8 0 0 0-1.6-.9h-.2a3.2 3.2 0 0 1 .8 2.6 5.4 5.4 0 0 1-1 2 12 12 0 0 0 2-1.3c.3-.2 1.9-1.1 1-1.8ZM46.8 20.6a11.7 11.7 0 0 0-1-.8l-1.3-1L43 18a3.6 3.6 0 0 0-.7-.2 13.7 13.7 0 0 1 1.4 1.4c.6.6 1 1.3.6 2.2a8.8 8.8 0 0 1-2 2.8 9.2 9.2 0 0 0 3.6-1.4c.7-.5 1.8-1.3.8-2.2ZM60.6 19.7a10.7 10.7 0 0 0-2.8-2 3.1 3.1 0 0 0-.9-.2L59 20a.1.1 0 0 1 0 .2 5 5 0 0 1-2.6 2.6 6.9 6.9 0 0 0 1.8.2c1.4 0 4.6-1.4 2.4-3.3ZM55.5 24a60 60 0 0 1-2.6-1h-.4L50 22l3 2.3a.1.1 0 0 1 0 .2 7.1 7.1 0 0 1-3.1 4 3.5 3.5 0 0 0 1.5-.2c1.1-.4 4.4-1.8 4.4-3.4a1.1 1.1 0 0 0-.3-.8ZM47.6 30.4a1.7 1.7 0 0 0-.7-1 3.8 3.8 0 0 1-.4-.2 12.5 12.5 0 0 1-2.5-1.4l-2.4-1.4a12.8 12.8 0 0 1 2 2.5c.3.3.6.5.5.9a6.1 6.1 0 0 1-.6 1.3 8.5 8.5 0 0 1-2.7 2.9h.1a11.6 11.6 0 0 0 4.8-1.7c.5-.2 2.1-1 1.9-1.9ZM38 35.4l-3.8-2.5a5.4 5.4 0 0 0-1.8-.2 11.8 11.8 0 0 1 3.6 2.5l-.1.3c-1.9 1-4.1 3.4-6.3 3.5a3.1 3.1 0 0 0 2.5.5 24 24 0 0 0 2.6-.8c1-.4 4.9-1.8 3.3-3.3ZM29.3 40.6l-.4-.3-1-.8a1.2 1.2 0 0 0-.8 0l-.6 2.3c.1.3.5.4.8.4a.2.2 0 0 1 .2 0l2-.8a1.4 1.4 0 0 0-.2-.8ZM67 26l-2-2.5-1-1a46 46 0 0 1 2.3 4.2l.4.1a1.6 1.6 0 0 0 .7-.2ZM58.5 34.5l-1.3-.5a12.3 12.3 0 0 1-1.3-.4 8.8 8.8 0 0 1-1.6-.8l-3.9-1.7a13.6 13.6 0 0 0 1.7 1.2l2 1.3c1 .7 0 2.3-.6 3-1.4 2-4 3.4-6.3 3a7.5 7.5 0 0 0 3.5.6 11.7 11.7 0 0 0 2-.4l.8-.3a23 23 0 0 0 3-1.4c1-.7 3.4-1.9 2-3.6ZM48 41.3a1.8 1.8 0 0 0-.2-.1l-5.5-3 .7.6c.6.7 1.3 1.5 1 2.6a6.6 6.6 0 0 1-4.4 4.3 7 7 0 0 0 3.2 0 17 17 0 0 0 4-1.6c1-.5 2.4-1.6 1.1-2.8ZM38 48a7.6 7.6 0 0 0-.8-1.1A246 246 0 0 1 31 42l.5.9 2.1 3.2a.2.2 0 0 1 0 .2 5.9 5.9 0 0 1-5.5 2.5 9.9 9.9 0 0 0 1.5 1.3 5.8 5.8 0 0 0 6.2 0c.5-.3 2.7-1.3 2.2-2.2ZM28.8 51.9a8 8 0 0 0-.6-1l-1.3-1.6a4.5 4.5 0 0 0-1.2-1c.9.9 2 2 1.8 3a3.3 3.3 0 0 1-1.1 2 3 3 0 0 0 1.4 0c.5-.2 1.4-.5 1-1.4ZM66.5 29a13.1 13.1 0 0 0-2.6-1.4l-.8-.4a9.6 9.6 0 0 1-1.5-.6 8.7 8.7 0 0 0-2.4-.5l2.2 1.2 2.2 1.1A1.7 1.7 0 0 1 64 31a6.6 6.6 0 0 1-3 2.4 6 6 0 0 1-.5.2 8.2 8.2 0 0 0 4.9-1.5c.9-.6 2.6-2 1-3.2ZM73.7 42.3a2.3 2.3 0 0 0-.8 0 3.7 3.7 0 0 1 1.4 1.5 3 3 0 0 1-.3 2.6 6.9 6.9 0 0 1-2.6 2.6c2 0 4-.6 4.6-2.5a1.6 1.6 0 0 0 0-.2c0-1.4-.9-3.6-2.3-4ZM70.9 50.7l-2.6-1-4-1.4v.1a13.2 13.2 0 0 0 2.8 2.7s0 0 0 .1a9.1 9.1 0 0 1-2 5.4 5.5 5.5 0 0 1-2.3 1.6 7.5 7.5 0 0 0 2.6-.4 11.9 11.9 0 0 0 5.6-4c1.2-1.5.8-2.5-.1-3.1ZM61.5 60a2.1 2.1 0 0 0-.4-.4Q56.8 58 52.6 56h-.1l1.4 1 2.5 2.3a8.4 8.4 0 0 1-7.2 5.6 7.1 7.1 0 0 0 2.5.4c3-.1 5.6-1.6 8.2-3.2.4-.3 2.1-1.2 1.6-2.1ZM48 66.8a14 14 0 0 0-2-1.5l-.5-.3-2.4-1.5a6.1 6.1 0 0 0-.7-.4 4.6 4.6 0 0 0-1.6-.4l3.6 3.1v.3a7 7 0 0 1-5.6 4.6 7.4 7.4 0 0 0 3.7.2c1.5-.5 3-1 4.4-1.7l.5-.3c.5-.4 1.6-1.1.5-2.1ZM32.6 67.5c.7 1 1.2 2 .3 3a7.3 7.3 0 0 1-2.3 1.6 3.5 3.5 0 0 0 1.4.5c.8 0 5.6.1 5.6-1.1a71.3 71.3 0 0 1-5-4ZM77.2 53.2a2.3 2.3 0 0 0-1-.8l-.4-.2a3.7 3.7 0 0 0-1.5.1c.7 1 1.5 2.1 1.5 3.3a5.6 5.6 0 0 1-1.7 3.6 6.7 6.7 0 0 1-3.7 2 10.5 10.5 0 0 0 4.3.1A3.8 3.8 0 0 0 78 58v-1.6a21.3 21.3 0 0 0-.8-3.2ZM72 62.9c-.9-.6-4.4-1.4-6.6-2a19.4 19.4 0 0 1 2.2 1.9A2.8 2.8 0 0 1 68 66c-1 2.1-3.3 3.4-5.1 4.6a10.8 10.8 0 0 0 4-1c1.4-.6 8.7-4.5 5.2-6.7ZM59.8 71.8a62 62 0 0 1-6.5-2.6 8.3 8.3 0 0 0-1.8-.2c1.2 1.1 3 1.6 4.3 2.6a37.7 37.7 0 0 1-2 5.5h.5a18.4 18.4 0 0 0 6.1-3.2 2.3 2.3 0 0 0 .6-.9 2.4 2.4 0 0 0-1.2-1.2ZM49.7 78A52.7 52.7 0 0 1 43 75l1 .8c.7.7 2.5 1 2 1.9s-4.5 3.3-5.2 3.3a11.6 11.6 0 0 0 5.7.1 14 14 0 0 0 3-1.2c.9-.5.7-1.1.2-1.7ZM40.6 83.6c.2-.2.1-.5-.3-1a8.2 8.2 0 0 0-.8-.6 46.5 46.5 0 0 1-4.8-2.9l-.4-.1a6.4 6.4 0 0 0-.7-.1c2.1 1.8 4.4 3.8 7 4.7ZM74.3 66l-.3.3 1.5-.4c.4 2.3-1 4.4-2.6 5.7a9.6 9.6 0 0 1-2.5 1.7h.5a.3.3 0 0 1 .2 0 5.7 5.7 0 0 0 4.3-1.5 27.1 27.1 0 0 0 1.8-5.1c0-2-1.7-1.3-2.9-.7ZM63.8 82a52 52 0 0 1-8.2-1.9l-1.3-.2 2 .8a12.6 12.6 0 0 1 2.4 1c1 .7.1 1.8-.6 2.3a9.6 9.6 0 0 1-4.3 1.3h-.4a15.7 15.7 0 0 0 3.4 0 17.5 17.5 0 0 0 5.1-1.4 7.9 7.9 0 0 0 2.1-1.2 1.1 1.1 0 0 0-.3-.6ZM48.8 85.6a10.2 10.2 0 0 1-1.4-.3 24.5 24.5 0 0 1 3.7 2.2s0 .1 0 .2a24.2 24.2 0 0 0 3.1-.3 2.3 2.3 0 0 0 1.1-.7 36 36 0 0 1-6.5-1ZM71.3 74.5a55.2 55.2 0 0 1-7.2-1.4 2.3 2.3 0 0 0-.2.2 32.6 32.6 0 0 0 5.1 2.1s0 0 0 .1c-.6 2.8-3.2 4.7-5.8 5.3h1a9.6 9.6 0 0 0 6.4-3c.9-1 1.8-2.6.7-3.3ZM70.3 38.4c-2.6-.6-5.2-1.4-7.7-2.3a1.1 1.1 0 0 0-.2.1c1 .6 2 1 3 1.8.4.3.9.6 1 1.1a3.9 3.9 0 0 1-.2 1.9 4.6 4.6 0 0 1-2.4 3 15.3 15.3 0 0 0 5.1-2.4c1.4-1 2.3-2.2 1.3-3.2ZM59 46.2l-4.7-2h-.1a89 89 0 0 1-2.9-1.3l-.1.1c1.8 1.3 3.8 2.4 5.5 3.9a9.1 9.1 0 0 1-3 5 7 7 0 0 1-1.7.9 8.7 8.7 0 0 0 3-.5 16.2 16.2 0 0 0 5-2.7c2-1.6.5-2.7-1-3.4ZM49.5 55.3a3.2 3.2 0 0 0-.9-1L44 51.5l-1.4-.8a11.6 11.6 0 0 0-1.5-.8l3 2.7c.5.5.8.7.5 1.6a4.8 4.8 0 0 1-.8 1.6 6.4 6.4 0 0 1-4.8 2.6 6.5 6.5 0 0 0 2.1.5 12 12 0 0 0 6.1-1.3c.5-.2 2.9-1.4 2.4-2.3ZM38.7 60.5l-.8-.9-2.4-2-3.2-2.8a5.9 5.9 0 0 0-1.5-.8c1.4 1.7 3.2 3.1 4.4 5 .1.1 0 .3-.1.3-2.1.7-4.8 2.2-7.2 2a13.4 13.4 0 0 0 3 2.2 5.5 5.5 0 0 0 5 0c.6-.3 2.8-1.3 3-2.3a2.1 2.1 0 0 0-.2-.7ZM30.2 65.3l-4-4a1.3 1.3 0 0 0-.6-.3c1.5 1.7 3 3.7 2.2 5.9a4.5 4.5 0 0 0 1.4-.4c.7-.2 1.3-.4 1-1.2ZM72.4 35.2l-.9-1.9a4.3 4.3 0 0 0-1.6-1.6 2 2 0 0 0-1.4-.2 11.5 11.5 0 0 1 3.6 5.6h.1a.8.8 0 0 0 .5-.5 1.5 1.5 0 0 0 0-.2 6.2 6.2 0 0 0-.3-1.2Z"
      fill="#62331b" />
  </g>

  <path
    d="M41 18.3a19.1 19.1 0 0 0-1.7 1 12.4 12.4 0 0 0-1.8 2 16.5 16.5 0 0 0 3.5-3ZM47.2 14.6a6.5 6.5 0 0 0-3.1 1 2.4 2.4 0 0 0 1-.2c.7-.3 1.4-.3 2-.5.1 0 .2-.3 0-.3ZM49.2 22.4a16 16 0 0 0-3.7 1.9c-.1 0-.2.3 0 .2a9.8 9.8 0 0 0 3.7-2ZM41.1 27.1a17.9 17.9 0 0 0-4.9 2.4s0 .2 0 .2a20 20 0 0 0 4.9-2.5ZM35.6 24l-1 .5a5 5 0 0 0-.8.8 4.8 4.8 0 0 0-1.3 2c0 .2.1.3.2.2a8.6 8.6 0 0 0 1.5-1.7 12.9 12.9 0 0 0 1.4-1.8ZM29.7 33.8a1.7 1.7 0 0 1-.3.4 1.3 1.3 0 0 0-.3.4c0 .1-.5.6-.2.8s.5-.5.6-.7a3.9 3.9 0 0 0 .3-.9ZM27.5 39.7a1 1 0 0 0-.3.7c0 .1.1 0 .2 0a1 1 0 0 0 0-.3v-.3a.1.1 0 0 0 .1-.1ZM40.2 37.3a4.4 4.4 0 0 1-1 .3 13.3 13.3 0 0 0-1.2.6 9.7 9.7 0 0 0-2.6 1.6v.2a8.9 8.9 0 0 0 2.7-1.2 6.3 6.3 0 0 0 2-1.5s.1 0 0 0ZM30.4 42.4a5.4 5.4 0 0 0-2.1.6c-.2 0-1.5.5-1.4.7a11 11 0 0 0 3.5-1c.2 0 .2-.3 0-.3ZM49.5 31.7c-1.4 1-3.2 1.3-4.4 2.7v.3a14 14 0 0 0 4.4-3ZM50.7 43.7c-1.6.8-3.4 1.3-4.8 2.4l.1.4a13.4 13.4 0 0 0 4.7-2.7ZM62 36.9c-.5.3-1.1.5-1.6.9a10.3 10.3 0 0 0-1.7 1.2c-.1 0-.2.4 0 .3a4.8 4.8 0 0 0 1.6-1A8.3 8.3 0 0 0 62 37ZM68 32c-.2.4-.7.6-1 .8a11.9 11.9 0 0 0-1 1c0 .1 0 .3.1.2.5-.3.8-.8 1.2-1.2a2.5 2.5 0 0 0 .7-.8ZM58 26.4l-1.7.7a5.8 5.8 0 0 0-1.9 1.4v.3a14.4 14.4 0 0 0 2-1.2 11.1 11.1 0 0 0 1.7-1.2ZM55.9 18c-.3-.1-.8.3-1 .4a3.9 3.9 0 0 0-1.3 1v.2c.4 0 .7-.4 1-.7l.6-.4c.2-.2.5-.5.7-.5ZM62.7 22.5a1.5 1.5 0 0 0-.6.2 3.4 3.4 0 0 0-.7.5c0 .1-.1.5.1.4.5-.1.8-.7 1.2-1v-.1ZM63.4 49.5c-1.5 1-3.1 1.5-4.4 2.7-.2.1-.2.6 0 .5a8.1 8.1 0 0 0 2.2-1.4 16.3 16.3 0 0 0 2.2-1.7ZM71.4 43a10.2 10.2 0 0 0-2.6 2c-.1.2-.1.5.1.4a16 16 0 0 0 2.6-2.3ZM73 53.8v.1L71.4 55a7.5 7.5 0 0 0-1.5 1.4c-.1.1 0 .4.1.3a11 11 0 0 0 1.7-1.4 5.3 5.3 0 0 0 1.4-1.4ZM63.2 62a7 7 0 0 0-2.7 1.2 17.4 17.4 0 0 0-3.3 2.2c0 .1-.1.5.1.4 2.1-1 3.9-2.6 6-3.7ZM51.6 57.3a26.7 26.7 0 0 0-4.1 1.9c-.2 0-.2.5 0 .4a11.4 11.4 0 0 0 2.5-1.1 4.8 4.8 0 0 0 1.6-1.2ZM39.9 63.3a11.6 11.6 0 0 1-1.5.5 6.3 6.3 0 0 0-1.5.7c-.1.2-.2.5 0 .5a6 6 0 0 0 1.7-.8 4.5 4.5 0 0 0 1.2-.9ZM30 54.3c-1-.4-2.1.3-3 .7 0 0-.1 0 0 0a4.2 4.2 0 0 0 1.2 0 5 5 0 0 0 1.7-.2c.1 0 .3-.4.1-.5ZM26.2 62.3 26 62a1 1 0 0 0-.4-.2 1.7 1.7 0 0 1 .2.5c0 .2.1.3.3.3s.2-.2.1-.3ZM31.5 67.2a1.9 1.9 0 0 0-.7.2 1.8 1.8 0 0 0-.4.1l-.2.1h-.1v.1a1.4 1.4 0 0 0 .7.2 1 1 0 0 0 .9-.4s0-.3-.2-.3ZM40.1 74.3a13.1 13.1 0 0 0-7 .1 6 6 0 0 0 2.7.3 26.5 26.5 0 0 0 4.2 0c.2 0 .4-.4.1-.4ZM35.2 80.5a.7.7 0 0 0-.3-.3c-.2-.1-.4-.1-.5-.3a1.7 1.7 0 0 0 .6.8c.1.1.2 0 .2-.2ZM44 84.3a1.2 1.2 0 0 0-.8 0 1.7 1.7 0 0 0-1 .6 5 5 0 0 0 1 0 1 1 0 0 0 .8-.3.2.2 0 0 0 0-.3ZM53.4 80.2a4 4 0 0 0-2.3.5 6.3 6.3 0 0 0-2 1.1s0 .1 0 0c.5.2 1.2-.1 1.6-.3a9.8 9.8 0 0 0 2.6-.8c.1-.1.3-.4.1-.5ZM50.2 69.5a7.9 7.9 0 0 0-4.2 1.6 11.6 11.6 0 0 0 2-.4 5.9 5.9 0 0 0 2.2-.7c.1-.1.3-.4 0-.5ZM63.3 74.3c-.7-.2-1.8.6-2.4 1a8.2 8.2 0 0 0-2.3 1.5l-.2.1a11.3 11.3 0 0 0 2.3-.8 9.3 9.3 0 0 0 2.6-1.4c.1 0 .2-.3 0-.4ZM74 67.4a14.3 14.3 0 0 0-3 1.7l-1.7 1c-.3.2-.5.6-.8.6.5.2 1.7-.6 2.2-.8a14 14 0 0 0 3.5-2.2s0-.4-.1-.3ZM39.4 50a11.1 11.1 0 0 0-3.5 1 6.7 6.7 0 0 0-2 1.3s-.1.1 0 .1a5.8 5.8 0 0 0 2-.6 12.6 12.6 0 0 0 3.5-1.5V50Z" fill="##c97a2f"/>
</svg>