<svg xmlns="http://www.w3.org/2000/svg" viewBox="0 0 300 300">
  <path fill="#bcbec0"
    d="M192 104V79h-91v25h-1c-8 15-13 34-13 55s5 40 13 54c0 0 1 6 46 6s47-6 47-6c8-14 13-33 13-54s-6-40-14-55Zm-2 108c-1 0-8 4-44 4-23 0-34-1-39-3a15 15 0 0 1-5-1c-8-15-12-33-12-53 0-19 5-38 13-53a3 3 0 0 0 1-2V82h85v22a3 3 0 0 0 1 2c8 15 12 34 12 53 0 20-4 38-12 53Z"
    opacity=".7" />
  <path
    d="M194 115a94 94 0 0 0-4-9 3 3 0 0 1-1-2V82h-85v22a3 3 0 0 1-1 2 92 92 0 0 0-4 9c14-2 80-2 95 0Z"
    fill="#fff" />
  <path fill="#c20038"
    d="M102 212a15 15 0 0 0 5 1c5 2 16 3 39 3 36 0 43-4 44-4 8-15 12-33 12-53a117 117 0 0 0-8-44c-15-2-81-2-95 0a118 118 0 0 0-9 44c0 20 4 38 12 53Z" />
  <path fill="#ff73b9" d="M99 115a509 509 0 0 0 51 2l44-1v-1c-15-3-80-3-95 0Z" opacity=".6" />
  <path d="M196 91a3 3 0 0 1-3 3h-93a3 3 0 0 1-3-3 3 3 0 0 1 3-3h93a3 3 0 0 1 3 3Z"
    fill="#d1d3d4" />
  <g opacity=".5">
    <path d="M193 88h-93a3 3 0 0 0-3 3h99a3 3 0 0 0-3-3Z" fill="#fff" />
  </g>
  <path d="M196 81a3 3 0 0 1-3 3h-93a3 3 0 0 1-3-3 3 3 0 0 1 3-3h93a3 3 0 0 1 3 3Z"
    fill="#d1d3d4" />
  <g opacity=".5">
    <path d="M193 78h-93a3 3 0 0 0-3 3h99a3 3 0 0 0-3-3Z" fill="#fff" />
  </g>
  <path d="M196 102a3 3 0 0 1-3 3h-93a3 3 0 0 1-3-3 3 3 0 0 1 3-3h93a3 3 0 0 1 3 3Z"
    fill="#d1d3d4" />
  <g opacity=".5">
    <path d="M193 99h-93a3 3 0 0 0-3 3h99a3 3 0 0 0-3-3Z" fill="#fff" />
  </g>
  <path
    d="M163 187a7 7 0 1 1-7-6 7 7 0 0 1 7 6ZM174 203a4 4 0 1 1-4-4 4 4 0 0 1 4 4ZM192 146a3 3 0 1 1-3-4 3 3 0 0 1 3 4ZM143 171a10 10 0 1 1-10-10 10 10 0 0 1 10 10ZM165 161a5 5 0 1 1-4-5 5 5 0 0 1 4 5ZM138 131a3 3 0 1 1-2-2 3 3 0 0 1 2 2ZM167 133a6 6 0 1 1-6-7 6 6 0 0 1 6 7ZM179 176a5 5 0 1 1-5-6 5 5 0 0 1 5 6ZM188 129a6 6 0 1 1-6-5 6 6 0 0 1 6 5ZM110 161a5 5 0 1 1-5-5 5 5 0 0 1 5 5ZM130 202a6 6 0 1 1-6-5 6 6 0 0 1 6 5ZM147 149a5 5 0 1 1-5-5 5 5 0 0 1 5 5ZM118 188a4 4 0 1 1-4-4 4 4 0 0 1 4 4ZM115 138a4 4 0 1 1-4-3 4 4 0 0 1 4 3ZM191 169a2 2 0 1 1-3-3 2 2 0 0 1 3 3ZM129 124a4 4 0 1 1-4-4 4 4 0 0 1 4 4ZM185 188a3 3 0 1 1-3-4 3 3 0 0 1 3 4Z"
    fill="#ffffff20" />
  <path d="M132 152h-3c-1-1 0-1 1-2s2 0 3 0l-1 2Z" fill="#fff" />
  <path d="M122 142v2l-2-1v-2c1-1 1 0 2 1ZM137 192c0 1-1 2-2 1l-1-2 2-1 1 2Z" fill="#ffffff6" />
  <path
    d="M133 132c0 1-1 2-2 1v-2l2-1v2ZM176 121v-3c1-1 1 0 2 1l1 2h-3ZM190 175l-2 1v-2c1-1 1-2 2-1v2Z"
    fill="#fff" />
  <path
    d="m143 137 1-2 2 1c1 1 0 2-1 3s-1-1-2-2ZM110 204l1-2 1 2v2l-2-2ZM153 158l1-2 1 2v2l-2-2ZM158 124l-3-1c-1-1 1-1 2-2s2 0 2 1l-1 2Z"
    fill="#fff" />
  <path d="m159 138-1-3 2 1 1 2h-2ZM183 206l-1-2 2 1 1 2-2-1Z" fill="#ffffff6" />
  <path d="m110 124 3-1-1 3h-2v-2Z" fill="#ffc912" />
  <path d="m112 162-1-2h3v2h-2Z" fill="#fff" />
  <path d="m134 164 2-2v2l-1 2-1-2Z" fill="#ffc912" />
  <path d="M159 178h-2l1-2h2l-1 2Z" fill="#ffffff6" />
  <path d="M114 186v2l-2-1v-2l2 1Z" fill="#ffc912" />
  <path d="M152 173c0 1-1 2-2 1v-2l2-1v2ZM169 188l1-2 2 2c1 1 0 2-1 2l-2-2Z" fill="#fff" />
  <path d="m176 171 1-2 1 1v3l-2-2Z" fill="#ffc912" />
  <path d="m94 164 1-2 1 2v2l-2-2ZM169 149h-2l1-2h2l-1 2Z" fill="#fff" />
  <path d="m179 140-1-2 2 1 1 2-2-1ZM123 176h2v2h-2v-2Z" fill="#fff" />
  <path d="m138 205-1-2h2l1 2h-2Z" fill="#fff" />
  <path d="m166 204 1-2 1 2-2 2v-2Z" fill="#fff" />
  <path fill="#ff99de"
    d="M146 193c24 0 43-27 43-60a85 85 0 0 0-2-19h-81a85 85 0 0 0-2 19c0 33 19 60 42 60Z"
    opacity=".1" />
  <path fill="#2d2d2d"
    d="M182 104V78h-31v26c8 15 13 34 13 56 0 20-4 39-12 54 0 0-22 5-15 5 44 0 46-5 46-5 8-15 13-34 13-54 0-22-5-41-14-56Z"
    opacity=".1" style="mix-blend-mode:multiply" />
  <path fill="#fff"
    d="M126 214c-8-15-12-34-12-54 0-22 5-41 13-56V78h-15v26c-8 15-13 34-13 55s4 40 12 54c0 0 1 6 47 6l-32-5Z"
    opacity=".1" />
  <path d="M120 161c0-21-11-21-11 0 0 20 11 20 11 0Z" fill="#ffffff20" />
  <path d="M119 135c2-9-3-11-5-1-2 9 3 10 5 1Z" fill="#ffffff20" />
</svg>