<svg xmlns="http://www.w3.org/2000/svg" viewBox="0 0 100 100">

  <path d="m32.2 59.6 2.5-8c5.1 0 10.2-.5 14.2-3.2l-3.1 10.1a41.6 41.6 0 0 1-13.6 1.1Z"
    fill="#e03636" />
  <path
    d="M34.7 55.3 35 54a2.6 2.6 0 0 1 2.5-1.9 24.3 24.3 0 0 0 5-.6 2.7 2.7 0 0 1 3.2 3.4l-.5 1.5a2.7 2.7 0 0 1-2 1.9 31.3 31.3 0 0 1-6 .6 2.7 2.7 0 0 1-2.6-3.5Z"
    fill="#ef7f7f" />
  <path d="m29.9 67 2.3-7.4a41.6 41.6 0 0 0 13.6-1L43.5 66a26.5 26.5 0 0 1-13.6 1Z"
    fill="#fff" />
  <path d="m27.5 74.8 2.4-7.7a26.5 26.5 0 0 0 13.6-1l-2.8 9c-4.3 1.1-8.7.7-13.2-.3Z"
    fill="#e03636" />
  <path
    d="m29.4 71.8.7-2.3a2.3 2.3 0 0 1 2.4-1.6 22 22 0 0 0 6-.1 2.3 2.3 0 0 1 2.6 3l-.8 2.5a2.4 2.4 0 0 1-1.8 1.7 24.6 24.6 0 0 1-7.2-.2 2.3 2.3 0 0 1-1.9-3Z"
    fill="#ef7f7f" />
  <path
    d="M27.5 74.8c4.5 1 9 1.4 13.2.4l-5 16a6.3 6.3 0 0 1-12-3.7ZM14.6 23.6l1-3.4A20 20 0 0 1 54 31.9l-5.1 16.5c-4 2.7-9 3.3-14.2 3.1l7.1-23.3a7.4 7.4 0 0 0-14-4.3l-1.1 3.5a6.3 6.3 0 1 1-12.1-3.7Z"
    fill="#fff" />
  <path
    d="M54.6 23.3A19.9 19.9 0 0 1 54 32l-1.5 4.8a59.7 59.7 0 0 1-15 5.6l3-9.7a27 27 0 0 0 14.1-9.3Z"
    fill="#e03636" />
  <path
    d="M48.8 29.1a2.6 2.6 0 0 1 4 2.9l-1 3a2.7 2.7 0 0 1-1.3 1.7 66.7 66.7 0 0 1-7 3 2.6 2.6 0 0 1-3.3-3.3l.7-2.4a2.7 2.7 0 0 1 1.7-1.7 25.8 25.8 0 0 0 6.2-3.2Z"
    fill="#ef7f7f" />
  <path
    d="M49.4 12.4a20.2 20.2 0 0 1 5.2 11 27 27 0 0 1-14.1 9.2l1.3-4.4a7.3 7.3 0 0 0 0-4.5 48 48 0 0 0 7.6-11.3Z"
    fill="#fff" />
  <path
    d="M35.5 6a19.8 19.8 0 0 1 14 6.4 48 48 0 0 1-7.7 11.3 7.4 7.4 0 0 0-3.6-4.2c1.3-4.3 1.6-8.8-2.7-13.5Z"
    fill="#e03636" />
  <path
    d="M38 9a13.4 13.4 0 0 1 3.4.6A13.1 13.1 0 0 1 46 12a2 2 0 0 1 .5 2.4 31.7 31.7 0 0 1-2.7 4 2 2 0 0 1-3 .1 2 2 0 0 1-.8-2A8 8 0 0 0 38 9Z"
    fill="#ef7f7f" />
  <path
    d="M27.7 7.3A20.3 20.3 0 0 1 35.5 6c4.3 4.7 4 9.2 2.7 13.5A6.7 6.7 0 0 0 37 19a7.2 7.2 0 0 0-3.3-.2c-.2-4.7-1.9-9-6-11.5Z"
    fill="#fff" />
  <path
    d="M20.8 11.8a20.4 20.4 0 0 1 6.9-4.5c4.1 2.6 5.8 6.8 6 11.5a7.4 7.4 0 0 0-6 5v.5c-1.1-5-2.6-9.7-7-12.6Z"
    fill="#e03636" />
  <path
    d="M25.6 10a3.2 3.2 0 0 1 3.9.6 10 10 0 0 1 2.4 4.6 3.2 3.2 0 0 1-1.5 3.7 5.9 5.9 0 0 0-2.7 3.4l-.1.4a19.2 19.2 0 0 0-3-7.8 3.3 3.3 0 0 1 1-4.9Z"
    fill="#ef7f7f" />
  <path
    d="m15.3 21.4.3-1.2a19.9 19.9 0 0 1 5.2-8.4c4.3 2.8 5.8 7.6 6.8 12.5l-1 3a6.3 6.3 0 0 1-3.5 4 25.5 25.5 0 0 0-7.8-10Z"
    fill="#fff" />
  <path d="M15.3 21.4a25.5 25.5 0 0 1 7.8 10 6.3 6.3 0 0 1-8.5-7.7Z" fill="#e03636" />
  <path d="M16.2 22.9a18.4 18.4 0 0 1 5.6 7.1 4.5 4.5 0 0 1-6-5.5Z" fill="#ef7f7f" />
  <path d="M35.8 91.2a6.3 6.3 0 0 1-12.3-3 59.3 59.3 0 0 0 14-2.7Z" fill="#e03636" />
  <path d="M34.6 90.8a5 5 0 0 1-5.7 3.6 4.8 4.8 0 0 1-3.7-5.5 44.5 44.5 0 0 0 10.5-2s.1 0 0 0Z"
    fill="#ef7f7f" />
  <path d="m57.8 59.6 2-6.7c-3.7-2.3-7-5-8.4-8.8l-2.6 8.5a34.2 34.2 0 0 0 9 7Z" fill="#06c4b2" />
  <path
    d="m58 55.5.4-1.2a2.2 2.2 0 0 0-.9-2.4 20.8 20.8 0 0 1-3.2-2.8 2.2 2.2 0 0 0-3.8.9l-.3 1.3a2.3 2.3 0 0 0 .5 2.2 26.3 26.3 0 0 0 4 3.2 2.2 2.2 0 0 0 3.3-1.2Z"
    fill="#8befde" />
  <path d="m55.9 65.8 1.9-6.2a34.2 34.2 0 0 1-9-7L47 59a22.2 22.2 0 0 0 9 7Z" fill="#fff" />
  <path d="m53.9 72.3 2-6.5a22.2 22.2 0 0 1-9-6.9l-2.2 7.5a25.1 25.1 0 0 0 9.2 6Z" fill="#06c4b2" />
  <path
    d="m54 69.3.6-1.9a2 2 0 0 0-1-2.2 18.4 18.4 0 0 1-4-2.9 2 2 0 0 0-3.2.8l-.6 2.2a2 2 0 0 0 .6 2 20.6 20.6 0 0 0 5 3.2 2 2 0 0 0 2.6-1.2Z"
    fill="#8befde" />
  <path
    d="M53.9 72.3a25.1 25.1 0 0 1-9.3-5.9l-4 13.4a5.3 5.3 0 0 0 10.1 3ZM86.6 43l1-2.9a16.7 16.7 0 0 0-32-9.7l-4.2 13.7c1.5 3.7 4.8 6.5 8.4 8.8l5.9-19.4A6.1 6.1 0 1 1 77.4 37l-.9 3a5.3 5.3 0 0 0 10.1 3Z"
    fill="#fff" />
  <path
    d="M59.1 24.1a16.5 16.5 0 0 0-3.5 6.3l-1.2 4A49.4 49.4 0 0 0 62 45.3l2.5-8.2c-3-3.8-5.2-8-5.5-13Z"
    fill="#06c4b2" />
  <path
    d="M60.5 30.9a2.2 2.2 0 0 0-4.2 0v.2l-.7 2.4a2.3 2.3 0 0 0 .2 1.8 53.4 53.4 0 0 0 3.4 5.2 2.2 2.2 0 0 0 3.9-.7l.6-2a2.3 2.3 0 0 0-.4-2 21.4 21.4 0 0 1-2.8-5Z"
    fill="#8befde" />
  <path
    d="M67.8 19a16.8 16.8 0 0 0-8.7 5.1c.3 5 2.4 9.2 5.5 13l1-3.6a6 6 0 0 1 2.2-3 40.2 40.2 0 0 1 0-11.5Z"
    fill="#fff" />
  <path
    d="M80.4 21.1a16.8 16.8 0 0 0-4-1.8 16.5 16.5 0 0 0-8.6-.3 40.2 40.2 0 0 0 0 11.4 6.1 6.1 0 0 1 4.4-1.2c1.1-3.6 3-6.8 8.2-8Z"
    fill="#06c4b2" />
  <path
    d="M77.3 22a10.8 10.8 0 0 0-7-1.6 1.6 1.6 0 0 0-1.4 1.4 25.8 25.8 0 0 0 0 4 1.6 1.6 0 0 0 2 1.5 1.7 1.7 0 0 0 1.4-1 6.6 6.6 0 0 1 5-4.3Z"
    fill="#8befde" />
  <path
    d="M85.2 25.6a16.8 16.8 0 0 0-4.8-4.5c-5.2 1.3-7 4.5-8.2 8a6 6 0 0 1 1.1.3 6 6 0 0 1 2.4 1.4c2.3-3.2 5.5-5.3 9.5-5.2Z"
    fill="#fff" />
  <path
    d="M87.9 31.9a16.8 16.8 0 0 0-2.8-6.3c-4-.1-7 2-9.4 5.2a6.1 6.1 0 0 1 1.7 6.2l-.1.4c3-3 6.3-5.6 10.6-5.5Z"
    fill="#06c4b2" />
  <path
    d="M85.4 28.4a2.7 2.7 0 0 0-3-1.3 8.4 8.4 0 0 0-3.9 2 2.7 2.7 0 0 0-.6 3.3 4.9 4.9 0 0 1 .3 3.6v.3a16 16 0 0 1 5.6-4 2.8 2.8 0 0 0 1.6-3.9Z"
    fill="#8befde" />
  <path
    d="m87.2 41.1.3-1a16.5 16.5 0 0 0 .4-8.2c-4.4-.1-7.6 2.6-10.6 5.5l-.8 2.6a5.2 5.2 0 0 0 .7 4.4 21.3 21.3 0 0 1 10-3.3Z"
    fill="#fff" />
  <path d="M87.2 41.1a21.3 21.3 0 0 0-10 3.2 5.3 5.3 0 0 0 9.4-1.3Z" fill="#06c4b2" />
  <path d="M85.9 41.7a15.2 15.2 0 0 0-7.2 2.3 3.7 3.7 0 0 0 2 1.6 3.8 3.8 0 0 0 4.7-2.5Z"
    fill="#8befde" />
  <path d="M40.6 79.8a5.3 5.3 0 0 0 9.9 3.6 49 49 0 0 1-8.5-8.3Z" fill="#06c4b2" />
  <path d="M41.6 80a4.2 4.2 0 0 0 2.2 5.2A4 4 0 0 0 49 83a37.3 37.3 0 0 1-6.3-6.3Z"
    fill="#8befde" />

</svg>