<svg xmlns="http://www.w3.org/2000/svg" viewBox="0 0 100 100">

  <path
    d="m53.5 96.3-18-23.2-29.3 1.7a3.3 3.3 0 0 1-3-5.1l16.6-24.3L9.2 18a3.3 3.3 0 0 1 4-4.3l28.1 8.2L64.1 3.3a3.3 3.3 0 0 1 5.3 2.4l1 29.4L95 51a3.3 3.3 0 0 1-.7 5.8l-27.6 10-7.5 28.4a3.3 3.3 0 0 1-5.7 1.1Z"
    fill="#f8c136" />
  <path fill="#fff"
    d="M52 80.8 39.4 64.5 19 65.7a2.3 2.3 0 0 1-2-3.6l11.5-17L21 25.9a2.3 2.3 0 0 1 2.8-3l19.7 5.7 16-13a2.3 2.3 0 0 1 3.7 1.7l.6 20.6L81.1 49a2.3 2.3 0 0 1-.4 4l-19.4 7L56 80a2.3 2.3 0 0 1-4 .8Z" />
  <path
    d="m51.2 71.6-9.5-12.2-15.4 1a1.7 1.7 0 0 1-1.5-2.8L33.5 45l-5.6-14.4a1.7 1.7 0 0 1 2.1-2.3l14.8 4.4 12-9.8a1.7 1.7 0 0 1 2.7 1.3l.5 15.4 13 8.3a1.7 1.7 0 0 1-.3 3L58 56.2l-4 14.9a1.7 1.7 0 0 1-3 .6Z"
    fill="#f8c136" />

</svg>